<?xml version="1.0" encoding="UTF-8"?>
<svg id="Layer_1" xmlns="http://www.w3.org/2000/svg" version="1.1" viewBox="0 0 1111.7 1099.2">
  <!-- Generator: Adobe Illustrator 29.8.5, SVG Export Plug-In . SVG Version: 2.1.1 Build 2)  -->
  <defs>
    <style>
      .st0 {
        stroke: #eae4dc;
      }

      .st0, .st1 {
        fill: none;
        stroke-linecap: round;
        stroke-linejoin: round;
        stroke-width: 5.3px;
      }

      .st1 {
        stroke: #eae5dc;
      }

      .st2 {
        fill: #99b53c;
      }

      .st3 {
        fill: #88a750;
      }
    </style>
  </defs>
  <g>
    <path class="st2" d="M15,1094.7c-26.4-60.6-14.8-204.6,11.1-265.4,25.9-60.8,61.7-118.1,76.8-182.5,13-55.9,9.7-114.8,24.8-170.2,15.1-55.5,49.4-106.2,97.3-138.3,47.8-32,109.1-44.4,164.9-30.4,55.8,14,104.9,55.1,125.7,108.8,28.4,73.4,3.3,157.3,21,234,9.4,40.8,30.5,77.8,45.1,117,28.5,76.4,29,248.8,6.4,327.1H15Z"/>
    <g>
      <line class="st0" x1="335.3" y1="456.3" x2="335.3" y2="1094.7"/>
      <line class="st0" x1="335.3" y1="636.7" x2="418.7" y2="509.2"/>
      <line class="st0" x1="335.3" y1="822.8" x2="410.2" y2="719.9"/>
      <line class="st0" x1="335.3" y1="636.7" x2="241.9" y2="509.2"/>
      <line class="st0" x1="335.3" y1="822.8" x2="241.9" y2="719.9"/>
    </g>
  </g>
  <path class="st3" d="M1057.1,700.8c-20-33.4-22.1-74.8-5.4-110,26.2-55.6,28.5-123.2,9.1-182.3-20.3-62-61.5-115.1-110.2-158.9-27.2-24.5-41.4-60.4-38.5-96.9h0c3.5-44.8-8.9-77.7-27.3-101.7-52.2-68-156.5-67.8-208.7.3-18.4,24-30.8,56.9-27.3,101.5h0c2.8,36.5-11.3,72.4-38.5,96.9-48.7,43.9-89.9,96.9-110.2,158.9-19.4,59.1-17.1,126.7,9.1,182.3,16.6,35.2,14.6,76.6-5.4,110-58.2,97.3-75.7,284.1-40.7,389.4,214.9,11.7,424.8,12.1,629.2,0,35-105.4,23.3-292.1-34.9-389.4Z"/>
  <g>
    <line class="st1" x1="780.6" y1="270.8" x2="780.6" y2="1094.7"/>
    <line class="st1" x1="783" y1="604.1" x2="871.4" y2="483.4"/>
    <line class="st1" x1="780.6" y1="483.4" x2="692.2" y2="362.7"/>
    <line class="st1" x1="780.6" y1="830" x2="707.6" y2="732.6"/>
  </g>
</svg>