<?xml version="1.0" encoding="UTF-8"?>
<svg id="Layer_1" xmlns="http://www.w3.org/2000/svg" version="1.1" viewBox="0 0 1341.8 772.5">
  <!-- Generator: Adobe Illustrator 29.8.5, SVG Export Plug-In . SVG Version: 2.1.1 Build 2)  -->
  <defs>
    <style>
      .st0 {
        fill: #d6d729;
      }

      .st1 {
        fill: #d2cd08;
      }

      .st2 {
        fill: #004d6e;
      }

      .st3 {
        fill: #d9d8d6;
      }

      .st4 {
        fill: #eae5dc;
      }

      .st5 {
        stroke: #88a750;
        stroke-width: 4.1px;
      }

      .st5, .st6, .st7, .st8, .st9 {
        fill: none;
        stroke-linejoin: round;
      }

      .st5, .st7, .st8, .st9 {
        stroke-linecap: round;
      }

      .st10 {
        fill: #88a750;
      }

      .st6 {
        stroke: #013d5b;
      }

      .st6, .st9 {
        stroke-width: 1.5px;
      }

      .st7 {
        stroke-width: 4.1px;
      }

      .st7, .st9 {
        stroke: #004d6e;
      }

      .st8 {
        stroke: #eae4dc;
        stroke-width: 4.7px;
      }
    </style>
  </defs>
  <polygon class="st10" points="676.7 770.5 21.6 770.5 0 697 676.7 697 676.7 770.5"/>
  <rect class="st3" x="585.9" y="695.7" width="414.5" height="74.8"/>
  <g>
    <path class="st10" d="M689.2,697c15.9-88.6-38-184.7-125.3-229.3,41-41.3,57.8-101.2,43.5-155.2-14.3-54-59.3-100.5-116.5-120.7.3,0,.6,0-1-2.4,17.4-47,13.5-102.2-18.9-142.2C438.7,7.3,375.1-12.5,325.5,8.6c-35.1,14.9-58.5,47.2-67.7,81.2-9.2,34.1-2.9,87,4.6,123.9-66.3,8.2-126.9,47.4-156.9,101.5-30,54.1-28.6,121.5,5.4,173.2C-16.6,567.9.8,696.6.8,697h688.4Z"/>
    <g>
      <line class="st8" x1="376" y1="155.3" x2="376" y2="697"/>
      <line class="st8" x1="376" y1="434.7" x2="292" y2="327.9"/>
      <line class="st8" x1="376" y1="565.4" x2="440.3" y2="474"/>
    </g>
  </g>
  <g id="Bag">
    <path id="Bag_Base" class="st3" d="M705,201.9c-47.1-18.5-84.6-58-102.5-107.8h326.2c-17.9,49.8-55.4,89.3-102.5,107.8,137.5,28.1,240.9,149.6,240.9,295.4v110.8c0,49.1-39.8,89-89,89h-425.1c-49.1,0-89-39.8-89-89v-110.8c0-145.7,103.4-267.3,240.9-295.4Z"/>
    <path id="Open_Top" class="st2" d="M928.7,94.1c-25.1,18.7-88.6,32-163.1,32-74.5,0-138-13.3-163.1-32h326.2Z"/>
    <g id="Tie">
      <g>
        <path class="st7" d="M828.7,202.4c-19.7,7.1-40.9,11-63.1,11-22.1,0-43.4-3.9-63.1-11"/>
        <path class="st7" d="M828.7,202.4c18.9,8.9,36.7,21.2,52.4,36.8,15.7,15.7,27.9,33.4,36.8,52.4"/>
        <path class="st7" d="M928.2,234.3l-99.5-32,92.4-48.8c5.2-2.8,11-4.7,17.3-5.2,24.3-2.1,45.8,15.9,47.9,40.2,2.1,24.3-15.9,45.8-40.2,47.9-6.3.5-12.3-.2-17.9-2.1Z"/>
      </g>
    </g>
  </g>
  <g id="flowers">
    <g id="flowers_right">
      <path class="st5" d="M994.2,443.2s31.7,61,57,230.9"/>
      <g>
        <path class="st4" d="M1002.8,319l-98.2,38.7c42.3-2.5,59.3,22.4,59.3,22.4,9.9-40.3,38.9-61.2,38.9-61.2Z"/>
        <path class="st0" d="M963.9,380.2c9.9-40.3,38.9-61.2,38.9-61.2,0,0,49.2,109-5.3,130.5-10.8,4.3-20.9,3.5-30.2-.6-38.6-17.1-62.7-91.1-62.7-91.1,42.3-2.5,59.3,22.4,59.3,22.4Z"/>
      </g>
      <path class="st10" d="M1034.2,570.6c69.5-103.4,140-108.6,140-108.6l-53.3,167.7c89.5-80,221-73.5,221-73.5l-118.3,140.8h-263.1l-87.7-262.1c74.4,31.3,126.3,84.3,161.5,135.6Z"/>
      <g>
        <path class="st4" d="M1221.9,464.5l-104.4-15.6c37.9,19,40.1,49.1,40.1,49.1,28.7-29.9,64.3-33.5,64.3-33.5Z"/>
        <path class="st0" d="M1117.5,448.9c37.9,19,40.1,49.1,40.1,49.1,28.7-29.9,64.3-33.5,64.3-33.5,0,0-11.9,119-69.8,110.4-11.5-1.7-19.8-7.5-25.8-15.7-24.9-34.1-8.7-110.3-8.7-110.3Z"/>
      </g>
    </g>
  </g>
  <g>
    <g id="Front_stack">
      <rect id="Front_stack_path" class="st1" x="440.5" y="431.1" width="173.9" height="339.4"/>
      <g id="Lines">
        <line class="st6" x1="440.5" y1="507.3" x2="614.5" y2="507.3"/>
        <line class="st6" x1="440.5" y1="469.5" x2="614.5" y2="469.5"/>
        <line class="st6" x1="440.5" y1="545.1" x2="614.5" y2="545.1"/>
        <line class="st6" x1="440.5" y1="582.9" x2="614.5" y2="582.9"/>
        <line class="st6" x1="440.5" y1="620.6" x2="614.5" y2="620.6"/>
        <line class="st6" x1="440.5" y1="658.4" x2="614.5" y2="658.4"/>
      </g>
      <g id="Lines1" data-name="Lines">
        <line class="st6" x1="440.5" y1="696.2" x2="614.5" y2="696.2"/>
        <line class="st6" x1="440.5" y1="658.4" x2="614.5" y2="658.4"/>
        <line class="st6" x1="440.5" y1="734" x2="614.5" y2="734"/>
        <line class="st6" x1="440.5" y1="771.7" x2="614.5" y2="771.7"/>
      </g>
    </g>
    <rect id="Front_Coin" class="st0" x="286.8" y="657.8" width="186" height="39.3"/>
    <rect id="Leaning_Coin" class="st0" x="579.9" y="589.2" width="177.4" height="36.4" transform="translate(944.5 -252.7) rotate(65.5)"/>
    <g id="Coin">
      <circle id="Outside" class="st1" cx="554.3" cy="347.6" r="87"/>
      <circle id="Inside" class="st0" cx="554.3" cy="347.6" r="72.8"/>
    </g>
    <g id="Dollar_sign">
      <g>
        <path class="st9" d="M539.6,375.9h19.7c8.2,0,14.9-6.7,14.9-14.9s-6.7-14.9-14.9-14.9h-9.9c-8.2,0-14.9-6.7-14.9-14.9,0-8.2,6.7-14.9,14.9-14.9h19.7"/>
        <line class="st9" x1="554.3" y1="306" x2="554.3" y2="386.2"/>
      </g>
    </g>
  </g>
  <rect id="Front_Coin1" data-name="Front_Coin" class="st0" x="286.8" y="696.4" width="186" height="74.2"/>
  <polygon class="st10" points="960.4 697 982.3 770.5 1172.4 770.5 1223.5 697 960.4 697"/>
</svg>