<?xml version="1.0" encoding="UTF-8"?>
<svg id="Layer_1" xmlns="http://www.w3.org/2000/svg" version="1.1" viewBox="0 0 1371.3 804">
  <!-- Generator: Adobe Illustrator 30.3.0, SVG Export Plug-In . SVG Version: 2.1.3 Build 182)  -->
  <defs>
    <style>
      .st0 {
        fill: #d6d729;
      }

      .st1 {
        fill: #d2cd08;
      }

      .st2 {
        stroke: #013d5b;
      }

      .st2, .st3, .st4, .st5, .st6 {
        fill: none;
        stroke-linejoin: round;
      }

      .st2, .st5 {
        stroke-width: 1.7px;
      }

      .st7 {
        fill: #004d6e;
      }

      .st8 {
        fill: #d9d8d6;
      }

      .st9 {
        fill: #eae5dc;
      }

      .st3 {
        stroke: #eae4dc;
        stroke-width: 5.3px;
      }

      .st3, .st4, .st5, .st6 {
        stroke-linecap: round;
      }

      .st4 {
        stroke-width: 4.6px;
      }

      .st4, .st5 {
        stroke: #004d6e;
      }

      .st10 {
        fill: #88a750;
      }

      .st6 {
        stroke: #88a750;
        stroke-width: 4.7px;
      }
    </style>
  </defs>
  <polygon class="st10" points="691.6 804 25.4 804 .8 712.4 691.6 712.4 691.6 804"/>
  <rect class="st8" x="598.8" y="711" width="423.6" height="92.9"/>
  <g>
    <path class="st10" d="M704.3,712.4c16.3-90.6-38.9-188.8-128-234.3,41.9-42.2,59.1-103.4,44.5-158.6-14.6-55.2-60.6-102.7-119-123.3.3,0,.6,0-1-2.5,17.7-48.1,13.8-104.4-19.3-145.3C448.3,7.4,383.4-12.8,332.7,8.7c-35.8,15.2-59.8,48.2-69.2,83-9.4,34.8-3,88.9,4.7,126.7-67.7,8.4-129.7,48.5-160.4,103.7-30.7,55.3-29.3,124.2,5.5,177C-17,580.4.8,711.9.8,712.4h703.5Z"/>
    <g>
      <line class="st3" x1="384.3" y1="158.7" x2="384.3" y2="712.4"/>
      <line class="st3" x1="384.3" y1="444.3" x2="298.4" y2="335.1"/>
      <line class="st3" x1="384.3" y1="577.8" x2="450" y2="484.5"/>
    </g>
  </g>
  <g id="Bag">
    <path id="Bag_Base" class="st8" d="M720.5,206.3c-48.1-18.9-86.5-59.3-104.8-110.2h333.4c-18.3,50.9-56.6,91.3-104.8,110.2,140.5,28.7,246.2,152.9,246.2,301.9v113.2c0,50.2-40.7,90.9-90.9,90.9h-434.4c-50.2,0-90.9-40.7-90.9-90.9v-113.2c0-149,105.7-273.2,246.2-301.9Z"/>
    <path id="Open_Top" class="st7" d="M949.2,96.1c-25.6,19.1-90.6,32.7-166.7,32.7s-141.1-13.6-166.7-32.7h333.4Z"/>
    <g id="Tie">
      <g>
        <path class="st4" d="M846.9,206.8c-20.1,7.3-41.8,11.2-64.4,11.2-22.6,0-44.3-4-64.4-11.2"/>
        <path class="st4" d="M846.9,206.8c19.4,9.1,37.5,21.6,53.5,37.6,16,16,28.5,34.1,37.6,53.5"/>
        <path class="st4" d="M948.6,239.5l-101.7-32.7,94.5-49.9c5.3-2.9,11.3-4.8,17.7-5.3,24.9-2.2,46.8,16.2,49,41.1,2.2,24.9-16.2,46.8-41.1,49-6.4.6-12.6-.2-18.3-2.2Z"/>
      </g>
    </g>
  </g>
  <g id="flowers">
    <g id="flowers_right">
      <path class="st6" d="M1016.1,453s32.4,62.4,58.2,236"/>
      <g>
        <path class="st9" d="M1024.9,326l-100.4,39.6c43.2-2.6,60.6,22.9,60.6,22.9,10.1-41.2,39.7-62.5,39.7-62.5Z"/>
        <path class="st0" d="M985.1,388.6c10.1-41.2,39.7-62.5,39.7-62.5,0,0,50.3,111.4-5.4,133.4-11,4.4-21.4,3.5-30.9-.7-39.5-17.4-64.1-93.1-64.1-93.1,43.2-2.6,60.6,22.9,60.6,22.9Z"/>
      </g>
      <path class="st10" d="M1056.9,583.1c71-105.7,143-111,143-111l-54.5,171.4c91.5-81.8,225.8-75.1,225.8-75.1l-120.9,143.9h-268.9l-89.6-267.8c76,32,129,86.2,165,138.6Z"/>
      <g>
        <path class="st9" d="M1248.8,474.7l-106.7-15.9c38.7,19.4,41,50.2,41,50.2,29.3-30.6,65.7-34.3,65.7-34.3Z"/>
        <path class="st0" d="M1142.1,458.8c38.7,19.4,41,50.2,41,50.2,29.3-30.6,65.7-34.3,65.7-34.3,0,0-12.1,121.6-71.4,112.8-11.8-1.7-20.3-7.6-26.4-16-25.5-34.9-8.9-112.7-8.9-112.7Z"/>
      </g>
    </g>
  </g>
  <g>
    <g id="Front_stack">
      <rect id="Front_stack_path" class="st1" x="450.2" y="440.6" width="177.8" height="363.3"/>
      <g id="Lines">
        <line class="st2" x1="450.2" y1="518.5" x2="628" y2="518.5"/>
        <line class="st2" x1="450.2" y1="479.9" x2="628" y2="479.9"/>
        <line class="st2" x1="450.2" y1="557.1" x2="628" y2="557.1"/>
        <line class="st2" x1="450.2" y1="595.7" x2="628" y2="595.7"/>
        <line class="st2" x1="450.2" y1="634.3" x2="628" y2="634.3"/>
        <line class="st2" x1="450.2" y1="672.9" x2="628" y2="672.9"/>
      </g>
      <g id="Lines1" data-name="Lines">
        <line class="st2" x1="450.2" y1="711.5" x2="628" y2="711.5"/>
        <line class="st2" x1="450.2" y1="672.9" x2="628" y2="672.9"/>
        <line class="st2" x1="450.2" y1="750.1" x2="628" y2="750.1"/>
        <line class="st2" x1="450.2" y1="788.7" x2="628" y2="788.7"/>
      </g>
    </g>
    <rect id="Front_Coin" class="st0" x="293.1" y="672.2" width="190.1" height="40.1"/>
    <rect id="Leaning_Coin" class="st0" x="592.7" y="609.2" width="181.3" height="37.2" transform="translate(971.6 -254.2) rotate(65.5)"/>
    <g id="Coin">
      <circle id="Outside" class="st1" cx="566.5" cy="355.2" r="88.9"/>
      <circle id="Inside" class="st0" cx="566.5" cy="355.2" r="74.4"/>
    </g>
    <g id="Dollar_sign">
      <g>
        <path class="st5" d="M551.4,384.2h20.1c8.4,0,15.2-6.8,15.2-15.2s-6.8-15.2-15.2-15.2h-10.1c-8.4,0-15.2-6.8-15.2-15.2,0-8.4,6.8-15.2,15.2-15.2h20.1"/>
        <line class="st5" x1="566.5" y1="312.8" x2="566.5" y2="394.7"/>
      </g>
    </g>
  </g>
  <rect id="Front_Coin1" data-name="Front_Coin" class="st0" x="293.1" y="711.7" width="190.1" height="92.3"/>
  <polygon class="st10" points="981.5 712.4 1008.2 804 1189.3 804 1250.4 712.4 981.5 712.4"/>
</svg>