<?xml version="1.0" encoding="UTF-8"?>
<svg id="Layer_1" xmlns="http://www.w3.org/2000/svg" version="1.1" viewBox="0 0 1445.8 1364.4">
  <!-- Generator: Adobe Illustrator 30.3.0, SVG Export Plug-In . SVG Version: 2.1.3 Build 182)  -->
  <defs>
    <style>
      .st0 {
        stroke: #95d4e9;
        stroke-width: 7.2px;
      }

      .st0, .st1 {
        fill: none;
        stroke-linecap: round;
        stroke-linejoin: round;
      }

      .st1 {
        stroke: #eae4dc;
        stroke-width: 3.9px;
      }

      .st2 {
        fill: #99b53c;
      }

      .st3 {
        fill: #eae4dc;
      }

      .st4 {
        fill: #83a83f;
      }
    </style>
  </defs>
  <g>
    <path class="st3" d="M755.1,864.3c-24.7-41.2-27.2-92.2-6.7-135.7,32.4-68.6,35.2-151.9,11.2-224.9-25.1-76.5-75.9-141.9-135.9-196-33.6-30.2-51-74.5-47.5-119.5h0c4.3-55.3-11-95.9-33.7-125.5-64.4-83.9-193.1-83.6-257.4.3-22.7,29.6-38,70.1-33.7,125.1h0c3.5,45.1-14,89.3-47.5,119.5-60.1,54.1-110.9,119.6-135.9,196-23.9,72.9-21.1,156.3,11.2,224.9,20.5,43.5,18,94.4-6.7,135.7C.6,984.4-21,1232.4,22.1,1362.4h772.2c43.2-130,32.5-378-39.3-498.1Z"/>
    <g>
      <line class="st0" x1="414.1" y1="334.1" x2="414.1" y2="1345.9"/>
      <line class="st0" x1="417" y1="745.1" x2="526.1" y2="596.3"/>
      <line class="st0" x1="414.1" y1="596.3" x2="305" y2="447.4"/>
      <line class="st0" x1="414.1" y1="1023.7" x2="324.1" y2="903.6"/>
    </g>
  </g>
  <path class="st2" d="M1135.8,1123c25.6-38.8,26.6-89.5,4.1-130.1-22.6-40.6-68.1-70.1-117.9-76.3,5.7-27.8,10.4-67.5,3.5-93.1-6.9-25.6-24.5-49.8-50.8-61-37.3-15.9-85-1-109.3,29.1-24.3,30-27.2,71.5-14.2,106.8-1.2,1.8-1,1.8-.7,1.8-42.9,15.2-76.7,50.1-87.5,90.7-10.7,40.6,1.9,85.6,32.7,116.6-65.5,33.5-106.1,105.7-94.1,172.3l14.8,82.7h495.2l7.4-84.7h0c1.2-13.4,5.4-99.7-83-154.7Z"/>
  <path class="st4" d="M1433.4,1211.9c-13.1-19.3-32.6-35.4-45.8-54.7-16.1-23.5-23.1-51.9-47.8-70.1-28.8-21.1-78.7-20.1-106.1,2.2-21.1,17.1-27.5,42.2-39.7,64.2-11.3,20.5-28.1,38.9-39.9,59.2-9.5,16.3-15.5,35-12.2,52.5h-.2s14.1,97.3,14.1,97.3h256.4l29.7-93.1h-.1c8.3-17.7,2.7-40.9-8.5-57.4Z"/>
  <g>
    <g>
      <line class="st1" x1="936.7" y1="872.7" x2="936.7" y2="1362.4"/>
      <line class="st1" x1="936.7" y1="1082.7" x2="999.8" y2="1002.4"/>
      <line class="st1" x1="936.7" y1="1180.8" x2="888.4" y2="1112.2"/>
    </g>
    <line class="st1" x1="1286.4" y1="1144.6" x2="1286.4" y2="1362.4"/>
  </g>
</svg>