<?xml version="1.0" encoding="UTF-8"?>
<svg id="Layer_2" xmlns="http://www.w3.org/2000/svg" version="1.1" viewBox="0 0 1216 678">
  <!-- Generator: Adobe Illustrator 30.2.1, SVG Export Plug-In . SVG Version: 2.1.1 Build 1)  -->
  <defs>
    <style>
      .st0 {
        fill: #ce0e2d;
      }

      .st1 {
        stroke: #83a83f;
        stroke-width: 3.7px;
      }

      .st1, .st2, .st3 {
        stroke-miterlimit: 10;
      }

      .st1, .st4 {
        fill: #83a83f;
      }

      .st5, .st6 {
        stroke-width: 1.7px;
      }

      .st5, .st6, .st2, .st7, .st8, .st9, .st3 {
        fill: none;
      }

      .st5, .st6, .st7, .st8 {
        stroke-linecap: round;
      }

      .st5, .st6, .st7, .st8, .st9 {
        stroke-linejoin: round;
      }

      .st5, .st8 {
        stroke: #eae5dc;
      }

      .st10 {
        fill: #d6d729;
      }

      .st11 {
        fill: #95d4e9;
      }

      .st6, .st7 {
        stroke: #004d6e;
      }

      .st12 {
        fill: #004d6e;
      }

      .st13 {
        fill: #d9d8d6;
      }

      .st14 {
        fill: #99b53c;
      }

      .st15 {
        fill: #eae5dc;
      }

      .st16 {
        fill: #85bcc8;
      }

      .st2 {
        stroke-width: .5px;
      }

      .st2, .st3 {
        stroke: #eae4dc;
      }

      .st17 {
        fill: #eae4dc;
      }

      .st18 {
        fill: #88a750;
      }

      .st19 {
        fill: #e5e03d;
      }

      .st7, .st3 {
        stroke-width: 3px;
      }

      .st8 {
        stroke-width: 2.8px;
      }

      .st20 {
        fill: #003a5d;
      }

      .st9 {
        stroke: #013d5b;
        stroke-width: 6.1px;
      }
    </style>
  </defs>
  <path id="Tree_2" class="st14" d="M1112.1,434.6c-10.6-17.1-11.6-38.3-2.9-56.4,13.8-28.5,15-63.1,4.8-93.4-10.7-31.8-32.5-59-58.2-81.5-14.4-12.6-21.8-30.9-20.3-49.7h0c1.8-23-4.7-39.8-14.4-52.1-27.5-34.9-82.6-34.7-110.1.1-9.7,12.3-16.3,29.1-14.4,52h0c1.5,18.7-6,37.1-20.3,49.7-25.7,22.5-47.4,49.7-58.2,81.5-10.2,30.3-9,64.9,4.8,93.4,8.8,18.1,7.7,39.2-2.9,56.4-30.7,49.9-40,187.5-21.5,241.5,115.1,1.8,225.8.3,332,0,18.5-54,12.3-191.6-18.4-241.5Z"/>
  <rect class="st19" x="294.4" y="602.2" width="516.6" height="74.4"/>
  <polygon class="st18" points="8.8 602.3 33.7 676.6 299.8 676.6 325.5 546 8.8 602.3"/>
  <g>
    <g>
      <path class="st18" d="M322,602.3c14.4-32.2,8.1-72.9-6.1-105.2-14.2-32.3-33.7-62.7-42-96.9-7.1-29.7-5.3-61-13.6-90.4-8.3-29.5-27-56.4-53.2-73.4-26.1-17-59.6-23.6-90.1-16.2-30.5,7.4-57.3,29.2-68.7,57.7-15.5,39-1.8,83.5-11.5,124.2-5.1,21.6-16.7,41.3-24.7,62.1-15.6,40.6-15.9,96.3-3.5,137.9h313.2Z"/>
      <g>
        <line class="st8" x1="146.9" y1="299.2" x2="146.9" y2="676.6"/>
        <line class="st8" x1="146.9" y1="394.9" x2="101.3" y2="327.2"/>
        <line class="st8" x1="146.9" y1="493.7" x2="106" y2="439.1"/>
        <line class="st8" x1="146.9" y1="394.9" x2="198" y2="327.2"/>
        <line class="st8" x1="146.9" y1="493.7" x2="198" y2="439.1"/>
      </g>
    </g>
    <path id="Tree_1" class="st18" d="M1210.6,603.9c8.8-11.7,5.6-30.1-1.8-42.5-7.4-12.4-18.5-22.8-25.9-35.3-9.1-15.2-13.1-33.5-27-45.2-16.3-13.6-44.5-13-60.1,1.4-11.9,11.1-15.6,27.2-22.5,41.4-6.4,13.2-15.9,25.1-22.6,38.2-6.7,13.1-10.4,28.5-4.7,42h164.5Z"/>
    <g>
      <g id="Bank">
        <polygon id="Inner_shaddow_fill" class="st19" points="383.1 241.5 383.1 602.3 811 602.3 811 241.1 383.1 241.5"/>
        <polygon id="Facade" class="st10" points="909.8 210.9 937.2 210.9 591.3 0 253.3 210.9 290.1 210.9 290.1 250.6 299.8 250.6 299.8 602.3 384 602.3 384 250.6 809.4 250.6 809.4 676.6 892.7 676.6 892.7 250.6 909.8 250.6 909.8 210.9"/>
        <g id="Lintel">
          <line class="st9" x1="290.2" y1="214.2" x2="910.1" y2="214.2"/>
          <line class="st9" x1="299.8" y1="253.9" x2="383.4" y2="253.9"/>
          <line class="st9" x1="809.9" y1="253.9" x2="889.9" y2="253.9"/>
        </g>
      </g>
      <g>
        <path class="st1" d="M496.5,328.5h15.7c34,0,61.6,27.6,61.6,61.6v93.4h-138.9v-93.4c0-34,27.6-61.6,61.6-61.6Z"/>
        <path class="st1" d="M678.2,328.5h15.7c34,0,61.6,27.6,61.6,61.6v93.4h-138.9v-93.4c0-34,27.6-61.6,61.6-61.6Z"/>
      </g>
      <rect class="st9" x="423.9" y="483.4" width="161" height="23.3"/>
      <rect class="st9" x="605.6" y="483.4" width="161" height="23.3"/>
    </g>
  </g>
  <g id="Light">
    <g id="Phone">
      <rect id="Phone_Screen" class="st13" x="205.5" y="218.4" width="251.4" height="386.7"/>
      <path id="Phone_Bottom" class="st12" d="M220.1,605h222.2c8.1,0,14.6,6.5,14.6,14.6v27.5h-251.4v-27.5c0-8.1,6.5-14.6,14.6-14.6Z" transform="translate(662.5 1252.2) rotate(180)"/>
      <circle id="Home_Button" class="st3" cx="331.2" cy="626.1" r="9.9"/>
      <path id="Phone_Top" class="st12" d="M220.1,196.3h222.2c8.1,0,14.6,6.5,14.6,14.6v7.5h-251.4v-7.5c0-8.1,6.5-14.6,14.6-14.6Z"/>
    </g>
    <g id="Bottom_Module">
      <rect id="Rectangle" class="st11" x="234.1" y="475.9" width="194.2" height="100.8"/>
      <g id="Lines">
        <line class="st7" x1="272.2" y1="509.3" x2="390.1" y2="509.3"/>
        <line class="st7" x1="272.2" y1="543.3" x2="390.1" y2="543.3"/>
      </g>
    </g>
    <rect id="Top_Module" class="st11" x="234.1" y="247.8" width="194.2" height="203.6"/>
  </g>
  <path class="st18" d="M1046.1,603.9s20.7,32.9,14.4,72.6l138.5.6s-9.3-29.9,11.7-73.2h-164.5Z"/>
  <g>
    <g id="Sign_BG">
      <path id="Shadow" class="st12" d="M1033.1,400.9l40.8,220.9h-.1s-78.9,0-78.9,0c-3.4-11.1,38.2-220.9,38.2-220.9Z"/>
      <polyline id="Leg" class="st6" points="1031.9 402.5 1073.2 621.8 1077.9 647.5"/>
    </g>
    <g id="Sign_FG">
      <g id="Legs">
        <line class="st5" x1="989" y1="647.5" x2="1031.9" y2="402.5"/>
        <line class="st5" x1="890.9" y1="401.9" x2="844" y2="647.4"/>
      </g>
      <path id="Sign_face" class="st15" d="M1033.1,400.9l-38.6,220.9-146.5-.2,42.2-220.8h143Z"/>
    </g>
    <g id="Light1" data-name="Light">
      <g>
        <g id="coffee">
          <g id="cup">
            <polygon class="st20" points="912.7 499.2 912.1 557.7 939 557.7 954.8 499.2 912.7 499.2"/>
            <polygon class="st16" points="912.5 513.1 912.1 546.9 941.9 546.9 951.1 513.1 912.5 513.1"/>
          </g>
          <polygon class="st16" points="957.9 492.2 911.5 492.2 909.5 499.2 958 499.2 957.9 492.2"/>
        </g>
        <g id="tea_cup">
          <path id="mug" class="st4" d="M969.7,530h-32.8s-1.6,11.9-1.6,11.9c-1,7.4,3,13.7,9.4,15.8h10.1c3.2-1,6.1-2.8,8.4-5.3,1.1.4,2.4.6,3.7.6,6.3,0,12.1-5.2,12.8-11.5.7-6.4-3.7-11.5-10-11.5ZM967.2,550.1c-.7,0-1.4,0-2-.2,1.6-2.4,2.6-5.1,3-8l1.1-8.9c4.7,0,8,3.8,7.4,8.6-.6,4.7-4.8,8.6-9.5,8.6Z"/>
          <path id="tray" class="st0" d="M970.9,557.7h-40.5c-2.7,0-4.5-2.2-4.2-4.8v-.5c0,0,50.1,0,50.1,0v.5c-.4,2.7-2.8,4.8-5.5,4.8Z"/>
          <g id="tea_bag">
            <polygon class="st17" points="963.3 547.6 956.2 547.6 957.5 537.6 964.5 537.6 963.3 547.6"/>
            <line class="st2" x1="961" y1="537.6" x2="962" y2="530"/>
          </g>
        </g>
      </g>
    </g>
  </g>
</svg>