<?xml version="1.0" encoding="UTF-8"?>
<svg id="Layer_1" xmlns="http://www.w3.org/2000/svg" version="1.1" viewBox="0 0 1157.3 645.2">
  <!-- Generator: Adobe Illustrator 30.3.0, SVG Export Plug-In . SVG Version: 2.1.3 Build 182)  -->
  <defs>
    <style>
      .st0 {
        fill: #d2cd08;
      }

      .st1 {
        stroke-miterlimit: 10;
        stroke-width: 27.5px;
      }

      .st1, .st2, .st3 {
        fill: none;
      }

      .st1, .st3 {
        stroke: #eae4dc;
      }

      .st4 {
        fill: #99b53c;
      }

      .st2 {
        stroke: #95d4e9;
        stroke-width: 2.3px;
      }

      .st2, .st3 {
        stroke-linecap: round;
        stroke-linejoin: round;
      }

      .st5 {
        fill: #eae5dc;
      }

      .st6 {
        fill: #eae4dc;
      }

      .st7 {
        fill: #88a750;
      }

      .st3 {
        stroke-width: 3.6px;
      }
    </style>
  </defs>
  <polygon class="st6" points="956.7 552.8 956.7 644.1 1129 644.1 1151.5 567.3 956.7 552.8"/>
  <g>
    <path class="st6" d="M1151.5,567.3c10.2-23.4,5.7-53.1-4.3-76.6-10-23.5-23.9-45.7-29.7-70.5-5-21.6-3.8-44.4-9.6-65.8-5.8-21.5-19.1-41.1-37.6-53.4-18.5-12.4-42.2-17.2-63.8-11.8s-40.5,21.3-48.6,42c-11,28.4-1.3,60.8-8.1,90.4-3.6,15.8-11.8,30.1-17.4,45.2-11,29.5-11.2,70.1-2.5,100.4h221.5Z"/>
    <g>
      <line class="st2" x1="1027.7" y1="346.6" x2="1027.7" y2="644.1"/>
      <line class="st2" x1="1027.7" y1="416.3" x2="995.4" y2="367.1"/>
      <line class="st2" x1="1027.7" y1="488.3" x2="998.7" y2="448.5"/>
      <line class="st2" x1="1027.7" y1="416.3" x2="1063.8" y2="367.1"/>
      <line class="st2" x1="1027.7" y1="488.3" x2="1063.8" y2="448.5"/>
    </g>
  </g>
  <g id="Buildings">
    <g id="Building_3">
      <g id="Building">
        <rect class="st7" x="765.2" y="80.6" width="209.2" height="563.5"/>
      </g>
      <rect id="Roof" class="st6" x="748" y="40.3" width="244.5" height="40.3" transform="translate(1740.5 120.9) rotate(180)"/>
      <line id="Window_2" class="st1" x1="899.5" y1="164.9" x2="899.5" y2="431.2"/>
      <line id="Window_1" class="st1" x1="833.5" y1="164.9" x2="833.5" y2="431.2"/>
    </g>
    <g id="Building_2">
      <g id="Building1" data-name="Building">
        <rect class="st7" x="317.5" y="80.6" width="209.2" height="563.5"/>
      </g>
      <rect id="Roof1" data-name="Roof" class="st6" x="299.4" y="40.3" width="244.5" height="40.3"/>
      <line id="Window_21" data-name="Window_2" class="st1" x1="458.4" y1="164.9" x2="458.4" y2="431.2"/>
      <line id="Window_11" data-name="Window_1" class="st1" x1="392.4" y1="164.9" x2="392.4" y2="431.2"/>
    </g>
    <g id="Building_1">
      <g id="Building2" data-name="Building">
        <rect class="st0" x="526.9" y="40.3" width="238.2" height="603.8"/>
      </g>
      <rect id="Roof2" data-name="Roof" class="st6" x="495" width="301.8" height="40.3"/>
      <rect id="Door" class="st6" x="603.7" y="386.6" width="84.5" height="157.4"/>
      <g id="Windows">
        <rect id="Window_3" class="st5" x="574.7" y="276" width="142.5" height="44"/>
        <rect id="Window_22" data-name="Window_2" class="st5" x="574.7" y="173.8" width="142.5" height="44"/>
        <rect id="Window_12" data-name="Window_1" class="st5" x="574.7" y="71.6" width="142.5" height="44"/>
      </g>
    </g>
  </g>
  <g>
    <path class="st4" d="M12.1,644.1c-16.1-37-16.1-156.5-.2-193.7,15.8-37.1,37.7-72.1,46.9-111.4,8-34.1,5.9-70.1,15.2-104,9.2-33.9,30.2-64.9,59.4-84.4,29.2-19.6,66.6-27.1,100.7-18.6,34.1,8.5,64.1,33.6,76.7,66.4,17.3,44.8,2,96,12.8,142.9,5.7,24.9,18.6,47.5,27.6,71.4,17.4,46.7,6.2,183.5-7.6,231.4H12.1Z"/>
    <g>
      <line class="st3" x1="200.7" y1="222.7" x2="200.7" y2="620.4"/>
      <line class="st3" x1="200.7" y1="332.8" x2="251.6" y2="255"/>
      <line class="st3" x1="200.7" y1="446.5" x2="246.4" y2="383.6"/>
      <line class="st3" x1="200.7" y1="332.8" x2="143.6" y2="255"/>
      <line class="st3" x1="200.7" y1="446.5" x2="143.6" y2="383.6"/>
    </g>
  </g>
</svg>