<?xml version="1.0" encoding="UTF-8"?>
<svg id="Layer_1" xmlns="http://www.w3.org/2000/svg" version="1.1" viewBox="0 0 1215.9 678">
  <!-- Generator: Adobe Illustrator 29.8.5, SVG Export Plug-In . SVG Version: 2.1.1 Build 2)  -->
  <defs>
    <style>
      .st0 {
        fill: #ce0e2d;
      }

      .st1 {
        stroke-width: 2.8px;
      }

      .st1, .st2, .st3, .st4, .st5, .st6, .st7, .st8 {
        fill: none;
      }

      .st1, .st2, .st5, .st6, .st7 {
        stroke-linecap: round;
      }

      .st1, .st2, .st5, .st6, .st7, .st8 {
        stroke-linejoin: round;
      }

      .st1, .st5 {
        stroke: #eae5dc;
      }

      .st9 {
        fill: #d6d729;
      }

      .st10 {
        fill: #95d4e9;
      }

      .st11 {
        fill: #fff;
      }

      .st12 {
        fill: #004d6e;
      }

      .st13 {
        fill: #d9d8d6;
      }

      .st14 {
        fill: #99b53c;
      }

      .st2 {
        stroke: #003a5d;
        stroke-dasharray: 56.3;
      }

      .st2, .st5, .st7 {
        stroke-width: 1.7px;
      }

      .st15 {
        fill: #eae5dc;
      }

      .st16 {
        fill: #85bcc8;
      }

      .st3 {
        stroke-width: .5px;
      }

      .st3, .st4 {
        stroke: #eae4dc;
      }

      .st3, .st4, .st17 {
        stroke-miterlimit: 10;
      }

      .st18 {
        fill: #eae4dc;
      }

      .st19, .st17 {
        fill: #83a83f;
      }

      .st4, .st6 {
        stroke-width: 3px;
      }

      .st20 {
        fill: #88a750;
      }

      .st21 {
        display: none;
      }

      .st6, .st7 {
        stroke: #004d6e;
      }

      .st22 {
        fill: #e5e03d;
      }

      .st17 {
        stroke: #83a83f;
        stroke-width: 3.7px;
      }

      .st8 {
        stroke: #013d5b;
        stroke-width: 6.1px;
      }

      .st23 {
        fill: #003a5d;
      }
    </style>
  </defs>
  <path id="Tree_2" class="st14" d="M1112.1,434.6c-10.6-17.1-11.6-38.3-2.9-56.4,13.8-28.5,15-63.1,4.8-93.4-10.7-31.8-32.5-59-58.2-81.4s-21.8-30.9-20.3-49.7h0c1.8-23-4.7-39.8-14.4-52.1-27.5-34.9-82.6-34.7-110.1.1-9.7,12.3-16.3,29.1-14.4,52h0c1.5,18.7-6,37.1-20.3,49.7-25.7,22.5-47.4,49.7-58.2,81.4-10.2,30.3-9,64.9,4.8,93.4,8.8,18.1,7.7,39.2-2.9,56.4-30.7,49.9-40,187.5-21.5,241.5,115.1,1.8,225.8.3,332,0,18.5-54,12.3-191.6-18.4-241.5Z"/>
  <rect class="st22" x="294.4" y="602.2" width="516.6" height="74.3"/>
  <polygon class="st20" points="8.8 602.2 33.7 676.5 299.7 676.5 325.4 546 8.8 602.2"/>
  <g>
    <g>
      <g>
        <path class="st20" d="M322,602.2c14.4-32.2,8.1-72.9-6.1-105.2-14.2-32.3-33.7-62.7-41.9-96.9-7.1-29.7-5.3-61-13.6-90.4-8.3-29.5-27-56.4-53.2-73.4-26.1-17-59.6-23.6-90.1-16.2-30.5,7.4-57.3,29.2-68.7,57.7-15.5,39-1.8,83.5-11.5,124.2-5.1,21.6-16.7,41.3-24.7,62.1-15.6,40.6-15.9,96.3-3.5,137.9h313.2Z"/>
        <g>
          <line class="st1" x1="146.9" y1="299.1" x2="146.9" y2="676.5"/>
          <line class="st1" x1="146.9" y1="394.9" x2="101.3" y2="327.2"/>
          <line class="st1" x1="146.9" y1="493.7" x2="106" y2="439.1"/>
          <line class="st1" x1="146.9" y1="394.9" x2="198" y2="327.2"/>
          <line class="st1" x1="146.9" y1="493.7" x2="198" y2="439.1"/>
        </g>
      </g>
      <path id="Tree_1" class="st20" d="M1210.6,603.8c8.8-11.7,5.6-30.1-1.8-42.5-7.4-12.4-18.5-22.8-25.9-35.3-9.1-15.2-13.1-33.5-27-45.2-16.3-13.6-44.5-13-60.1,1.4-11.9,11.1-15.6,27.2-22.5,41.4-6.4,13.2-15.9,25.1-22.6,38.2-6.7,13.1-10.4,28.5-4.7,42h164.5Z"/>
      <g>
        <g>
          <g id="Bank">
            <polygon id="Inner_shaddow_fill" class="st22" points="383.1 241.4 383.1 602.2 811 602.2 811 241.1 383.1 241.4"/>
            <polygon id="Facade" class="st9" points="909.7 210.9 937.1 210.9 591.2 0 253.3 210.9 290 210.9 290 250.6 299.7 250.6 299.7 602.2 384 602.2 384 250.6 809.4 250.6 809.4 676.5 892.7 676.5 892.7 250.6 909.7 250.6 909.7 210.9"/>
            <g id="Lintel">
              <line class="st8" x1="290.1" y1="214.2" x2="910" y2="214.2"/>
              <line class="st8" x1="299.7" y1="253.9" x2="383.4" y2="253.9"/>
              <line class="st8" x1="809.9" y1="253.9" x2="889.8" y2="253.9"/>
            </g>
          </g>
          <g>
            <path class="st17" d="M496.5,328.5h15.7c34,0,61.6,27.6,61.6,61.6v93.4h-138.9v-93.4c0-34,27.6-61.6,61.6-61.6Z"/>
            <path class="st17" d="M678.2,328.5h15.7c34,0,61.6,27.6,61.6,61.6v93.4h-138.9v-93.4c0-34,27.6-61.6,61.6-61.6Z"/>
          </g>
          <rect class="st8" x="423.8" y="483.4" width="161" height="23.3"/>
          <rect class="st8" x="605.5" y="483.4" width="161" height="23.3"/>
        </g>
        <g id="Light">
          <g id="Sign_BG">
            <path id="Shadow" class="st12" d="M1035.6,355.7l40.8,220.9h-.1s-46.6,0-46.6,0c-3.4-11.1-14-18.1-29.5-18l35.4-203Z"/>
            <polyline id="Leg" class="st7" points="1034.5 357.2 1075.7 576.6 1080.5 602.2"/>
          </g>
          <g id="Sign_FG">
            <g id="Legs">
              <line class="st5" x1="991.6" y1="602.2" x2="1034.5" y2="357.2"/>
              <line class="st5" x1="893.5" y1="356.6" x2="846.5" y2="602.2"/>
            </g>
            <path id="Sign_face" class="st15" d="M1035.6,355.7l-38.6,221h-44.9c-3.4-10.4-14.7-18-28.3-18s-24.9,7.6-28.3,18h-45.1c0-.1,42.2-220.9,42.2-220.9h43.3c3.6,10.1,14.8,17.5,28.1,17.5s24.6-7.4,28.1-17.5h0s43.4,0,43.4,0Z"/>
            <g id="Dotted_lines">
              <line class="st2" x1="1023.5" y1="384.8" x2="1007.2" y2="384.8"/>
              <line class="st2" x1="996.8" y1="384.8" x2="980.6" y2="384.8"/>
              <line class="st2" x1="967.4" y1="384.8" x2="951.2" y2="384.8"/>
              <line class="st2" x1="939.2" y1="384.8" x2="922.9" y2="384.8"/>
              <line class="st2" x1="910.6" y1="384.8" x2="894.4" y2="384.8"/>
              <line class="st2" x1="993.7" y1="546" x2="977.5" y2="546"/>
              <line class="st2" x1="967" y1="546" x2="950.8" y2="546"/>
              <line class="st2" x1="937.6" y1="546" x2="921.4" y2="546"/>
              <line class="st2" x1="909.4" y1="546" x2="893.1" y2="546"/>
              <line class="st2" x1="880.8" y1="546" x2="864.6" y2="546"/>
            </g>
          </g>
          <g id="Graphic_Option_A_-_Golf" class="st21">
            <path id="Ball" class="st11" d="M958.6,440c-4.2,6.8-12.7,9.3-19,5.7-6.2-3.7-7.8-12.2-3.6-19,4.2-6.8,12.7-9.3,19-5.7,6.2,3.7,7.8,12.2,3.6,19Z"/>
            <g id="Club_2">
              <line id="Stroke" class="st7" x1="974" y1="445" x2="906.5" y2="506.2"/>
              <path id="Clubhead" class="st12" d="M976.3,457.2l-8-8.3,5-4.6c.4-.4,1.1-.4,1.5,0l7.2,7.5c1.5,1.6,1.4,4-.2,5.5h0c-1.6,1.5-4.1,1.4-5.6-.2Z"/>
            </g>
            <g id="Club_1">
              <line id="Stroke1" data-name="Stroke" class="st7" x1="918.7" y1="444" x2="962.9" y2="506.1"/>
              <path id="Clubhead1" data-name="Clubhead" class="st12" d="M913.9,455.4l9.6-6.4-4-5.6c-.3-.4-.9-.5-1.3-.2l-8.8,5.9c-1.8,1.2-2.3,3.6-1,5.4h0c1.2,1.8,3.7,2.2,5.5,1Z"/>
            </g>
          </g>
        </g>
      </g>
    </g>
    <g id="Light1" data-name="Light">
      <g id="Phone">
        <rect id="Phone_Screen" class="st13" x="205.5" y="174" width="251.4" height="386.6"/>
        <path id="Phone_Bottom" class="st12" d="M220.1,560.6h222.2c8.1,0,14.6,6.5,14.6,14.6v27.5h-251.4v-27.5c0-8.1,6.5-14.6,14.6-14.6Z" transform="translate(662.4 1163.3) rotate(180)"/>
        <circle id="Home_Button" class="st4" cx="331.2" cy="581.7" r="9.9"/>
        <path id="Phone_Top" class="st12" d="M220.1,151.9h222.2c8.1,0,14.6,6.5,14.6,14.6v7.5h-251.4v-7.5c0-8.1,6.5-14.6,14.6-14.6Z"/>
      </g>
      <g id="Bottom_Module">
        <rect id="Rectangle" class="st10" x="234.1" y="431.5" width="194.2" height="100.8"/>
        <g id="Lines">
          <line class="st6" x1="272.2" y1="464.9" x2="390.1" y2="464.9"/>
          <line class="st6" x1="272.2" y1="498.9" x2="390.1" y2="498.9"/>
        </g>
      </g>
      <rect id="Top_Module" class="st10" x="234.1" y="203.4" width="194.2" height="203.6"/>
    </g>
  </g>
  <path class="st20" d="M1046,603.8s20.7,32.9,14.4,72.6l138.5.6s-9.3-29.9,11.7-73.2h-164.5Z"/>
  <g id="Light2" data-name="Light">
    <g>
      <g id="coffee">
        <g id="cup">
          <polygon class="st23" points="905.9 437.4 905.2 506 936.8 506 955.4 437.4 905.9 437.4"/>
          <polygon class="st16" points="905.7 453.7 905.3 493.4 940.3 493.4 951.1 453.7 905.7 453.7"/>
        </g>
        <polygon class="st16" points="959.1 429.2 904.6 429.2 902.2 437.4 959.1 437.4 959.1 429.2"/>
      </g>
      <g id="tea_cup">
        <path id="mug" class="st19" d="M972.9,473.6h-38.5s-1.9,13.9-1.9,13.9c-1.2,8.7,3.5,16,11,18.6h11.9c3.8-1.2,7.2-3.3,9.9-6.2,1.3.5,2.8.7,4.3.7,7.4,0,14.2-6.1,15.1-13.5.9-7.5-4.4-13.5-11.8-13.5ZM970,497.1c-.8,0-1.6-.1-2.3-.3,1.9-2.8,3.1-6,3.5-9.3l1.3-10.5c5.5,0,9.4,4.5,8.7,10-.7,5.5-5.7,10-11.2,10Z"/>
        <path id="tray" class="st0" d="M975.1,506h-49.2c-2.7,0-4.5-2.2-4.2-4.8l.2-1.5h58.8s-.2,1.5-.2,1.5c-.3,2.7-2.7,4.8-5.4,4.8Z"/>
        <g id="tea_bag">
          <polygon class="st18" points="965.3 494.3 957.1 494.3 958.6 482.5 966.8 482.5 965.3 494.3"/>
          <line class="st3" x1="962.7" y1="482.5" x2="963.8" y2="473.6"/>
        </g>
      </g>
    </g>
  </g>
</svg>