<?xml version="1.0" encoding="UTF-8"?>
<svg id="Layer_1" xmlns="http://www.w3.org/2000/svg" version="1.1" viewBox="0 0 1181.7 887.3">
  <!-- Generator: Adobe Illustrator 30.3.0, SVG Export Plug-In . SVG Version: 2.1.3 Build 182)  -->
  <defs>
    <style>
      .st0 {
        fill: #d6d729;
      }

      .st1 {
        fill: none;
        stroke: #004d6e;
        stroke-linecap: round;
        stroke-linejoin: round;
        stroke-width: 3.7px;
      }

      .st2 {
        fill: #99b53c;
      }

      .st3 {
        fill: #eae4dc;
      }

      .st4 {
        fill: #88a750;
      }
    </style>
  </defs>
  <g id="Light_1">
    <g id="flag">
      <polygon id="flag1" data-name="flag" class="st0" points="285.4 75.3 285.4 1.9 357 38.6 285.4 75.3"/>
      <line id="stand" class="st1" x1="285.4" y1="126" x2="285.4" y2="1.9"/>
    </g>
    <g id="hills">
      <path id="hill_-_back" class="st4" d="M939.5,803.6l-39.8.7H143.8c184.3,0,324.2-480.7,508.2-480.7s287.4,479.9,287.4,479.9Z"/>
      <path id="hill_-_front" class="st2" d="M283.6,126C74.5,126,6.4,805.8,6.4,805.8h516s324.8-.6,316.9-1.8C588.5,765.2,480.8,126,283.6,126Z"/>
      <path id="lower_path" class="st3" d="M724.6,805.8c-23.1,0-234.9-25.5-257.9-28.8-56.9-8.6-114.2-23.8-164.1-52.8-17.2-10.5-37-24.7-44-43.1-4.8-14.3.6-21.8,13.7-28.4,14.8-7.3,31.2-10.8,47.9-14,34.5-6.2,70.6-9.1,105.7-14.1,18.2-2.7,36.7-5.5,54.4-11.5,9.7-3.4,20.6-8.1,27.8-17.1,9.6-11.8,6.8-28-3.8-37.9-10.2-9.8-21.7-14.9-33.9-20.2-11.4-4.8-22.9-8.7-34.4-12.4-99.5-34.1-340.2-74.9-320-215.9-4.2,10.5-8.2,21.3-12.1,32.3,0,.8.2,1.6.3,2.3,8.7,64,69.1,102.9,122.8,128.4,43.6,20.5,89.4,35.4,135.1,49.7,33.8,10.8,68,20.3,100.4,34.1,9.4,4.2,20.1,9.4,27,16.3,2.2,2.5,3.7,4.2,3.4,7.2-.6,2.8-2.9,4.7-5.7,6.6-3.7,2.4-8.6,4.4-13.7,6-16.3,5.1-33.4,7.4-50.5,9.6-47.8,6.2-96.4,7.4-143.4,21.2-16.7,5.4-35,13.2-43.8,30.3-8.8,18-2.1,40.1,9.3,54.9,44.1,56.1,153.9,88,238.7,97.3h240.9Z"/>
      <path id="upper_path" class="st3" d="M400.5,373.9c33.1,3.9,67,2.9,99.9-4.6-1.9-3.7-3.8-7.4-5.7-11.1-64.4,15-134.1,5.2-194.4-21.3-60.5-26.2-123.9-81.4-116-153.1-1.7,2.2-3.5,4.4-5.2,6.7-.9,14.3.8,28.8,5.2,42.5,28.9,85.2,132.7,130.8,216.2,140.8Z"/>
    </g>
  </g>
  <polygon class="st4" points="797.6 870.8 942.5 870.8 939.5 803.6 797.6 803.7 797.6 870.8"/>
  <polygon class="st2" points="1181.7 887.3 0 887.3 6.4 805.8 830.7 802.4 1181.7 887.3"/>
  <polygon class="st3" points="467.3 803.9 851.2 887.3 1094.4 887.3 688.1 803 467.3 803.9"/>
</svg>