<?xml version="1.0" encoding="UTF-8"?>
<svg id="Layer_1" xmlns="http://www.w3.org/2000/svg" version="1.1" viewBox="0 0 804.7 1314.4">
  <!-- Generator: Adobe Illustrator 29.8.5, SVG Export Plug-In . SVG Version: 2.1.1 Build 2)  -->
  <defs>
    <style>
      .st0 {
        fill: none;
        stroke: #95d4e9;
        stroke-linecap: round;
        stroke-linejoin: round;
        stroke-width: 6.4px;
      }

      .st1 {
        fill: #eae4dc;
      }
    </style>
  </defs>
  <path class="st1" d="M738.8,845.7c-24.1-40.3-26.6-90.2-6.6-132.8,31.7-67.1,34.4-148.7,11-220-24.5-74.8-74.3-138.9-133-191.8-32.8-29.6-49.9-72.9-46.5-116.9h0c4.2-54.1-10.8-93.8-33-122.8-63-82.1-188.9-81.8-251.8.3-22.2,29-37.2,68.6-33,122.5h0c3.4,44.1-13.7,87.3-46.5,116.9-58.8,52.9-108.5,117-133,191.8-23.4,71.4-20.7,152.9,11,220,20.1,42.5,17.6,92.4-6.6,132.8C.6,963.2-20.6,1176.4,21.7,1303.6c259.3,14.1,512.6,14.7,759.3,0,42.2-127.2,28.2-340.4-42.1-457.9Z"/>
  <g>
    <line class="st0" x1="405.2" y1="326.9" x2="405.2" y2="1309"/>
    <line class="st0" x1="408" y1="729.1" x2="514.8" y2="583.4"/>
    <line class="st0" x1="405.2" y1="583.4" x2="298.4" y2="437.7"/>
    <line class="st0" x1="405.2" y1="1001.6" x2="317.1" y2="884.1"/>
  </g>
</svg>