<?xml version="1.0" encoding="UTF-8"?>
<svg id="Layer_1" xmlns="http://www.w3.org/2000/svg" version="1.1" viewBox="0 0 1359 699.5">
  <!-- Generator: Adobe Illustrator 29.8.5, SVG Export Plug-In . SVG Version: 2.1.1 Build 2)  -->
  <defs>
    <style>
      .st0 {
        fill: #d2cd08;
      }

      .st1 {
        stroke-width: 3.6px;
      }

      .st1, .st2 {
        stroke: #eae4dc;
      }

      .st1, .st2, .st3 {
        fill: none;
      }

      .st1, .st3 {
        stroke-linecap: round;
        stroke-linejoin: round;
      }

      .st2 {
        stroke-miterlimit: 10;
        stroke-width: 27.9px;
      }

      .st4 {
        fill: #99b53c;
      }

      .st5 {
        fill: #eae5dc;
      }

      .st6 {
        fill: #eae4dc;
      }

      .st7 {
        fill: #88a750;
      }

      .st3 {
        stroke: #95d4e9;
        stroke-width: 2.8px;
      }
    </style>
  </defs>
  <polygon class="st6" points="1084 604.9 1084 697.7 1329.7 697.7 1351 625 1084 604.9"/>
  <g>
    <path class="st6" d="M1351,625c14-32.1,7.8-72.8-5.9-105-13.7-32.2-32.7-62.6-40.7-96.7-6.9-29.6-5.2-60.9-13.1-90.2-8-29.4-26.2-56.3-51.5-73.3-25.3-17-57.8-23.5-87.4-16.1-29.6,7.4-55.6,29.2-66.6,57.6-15,38.9-1.8,83.3-11.1,124-5,21.6-16.2,41.2-23.9,62-15.1,40.5-15.4,96.2-3.4,137.7h303.7Z"/>
    <g>
      <line class="st3" x1="1181.3" y1="322.3" x2="1181.3" y2="697.7"/>
      <line class="st3" x1="1181.3" y1="417.9" x2="1137.1" y2="350.4"/>
      <line class="st3" x1="1181.3" y1="516.5" x2="1141.6" y2="462"/>
      <line class="st3" x1="1181.3" y1="417.9" x2="1230.8" y2="350.4"/>
      <line class="st3" x1="1181.3" y1="516.5" x2="1230.8" y2="462"/>
    </g>
  </g>
  <g id="Buildings">
    <g id="Building_3">
      <g id="Building">
        <rect class="st7" x="863.1" y="97.6" width="235.2" height="527.4"/>
      </g>
      <rect id="Roof" class="st6" x="843.8" y="52.2" width="274.9" height="45.3" transform="translate(1962.5 149.8) rotate(180)"/>
      <line id="Window_2" class="st2" x1="1014.1" y1="192.3" x2="1014.1" y2="491.8"/>
      <line id="Window_1" class="st2" x1="939.9" y1="192.3" x2="939.9" y2="491.8"/>
    </g>
    <g id="Building_2">
      <g id="Building1" data-name="Building">
        <rect class="st7" x="359.7" y="97.6" width="235.2" height="527.4"/>
      </g>
      <rect id="Roof1" data-name="Roof" class="st6" x="339.3" y="52.2" width="274.9" height="45.3"/>
      <line id="Window_21" data-name="Window_2" class="st2" x1="518.1" y1="192.3" x2="518.1" y2="491.8"/>
      <line id="Window_11" data-name="Window_1" class="st2" x1="443.9" y1="192.3" x2="443.9" y2="491.8"/>
    </g>
    <g id="Building_1">
      <g id="Building2" data-name="Building">
        <rect class="st0" x="595.1" y="52.2" width="267.8" height="572.7"/>
      </g>
      <rect id="Roof2" data-name="Roof" class="st6" x="559.3" y="6.9" width="339.4" height="45.3"/>
      <rect id="Door" class="st6" x="681.5" y="441.6" width="95.1" height="177"/>
      <g id="Windows">
        <rect id="Window_3" class="st5" x="648.9" y="317.3" width="160.3" height="49.4"/>
        <rect id="Window_22" data-name="Window_2" class="st5" x="648.9" y="202.4" width="160.3" height="49.4"/>
        <rect id="Window_12" data-name="Window_1" class="st5" x="648.9" y="87.4" width="160.3" height="49.4"/>
      </g>
    </g>
  </g>
  <g id="Buildings1" data-name="Buildings">
    <g id="Building_31" data-name="Building_3">
      <g id="Building3" data-name="Building">
        <rect class="st7" x="860.5" y="90.6" width="235.2" height="607"/>
      </g>
      <rect id="Roof3" data-name="Roof" class="st6" x="841.2" y="45.3" width="274.9" height="45.3" transform="translate(1957.3 136) rotate(180)"/>
      <line id="Window_23" data-name="Window_2" class="st2" x1="1011.5" y1="185.4" x2="1011.5" y2="484.9"/>
      <line id="Window_13" data-name="Window_1" class="st2" x1="937.3" y1="185.4" x2="937.3" y2="484.9"/>
    </g>
    <g id="Building_21" data-name="Building_2">
      <g id="Building4" data-name="Building">
        <rect class="st7" x="357.1" y="90.6" width="235.2" height="607"/>
      </g>
      <rect id="Roof4" data-name="Roof" class="st6" x="336.7" y="45.3" width="274.9" height="45.3"/>
      <line id="Window_24" data-name="Window_2" class="st2" x1="515.5" y1="185.4" x2="515.5" y2="484.9"/>
      <line id="Window_14" data-name="Window_1" class="st2" x1="441.3" y1="185.4" x2="441.3" y2="484.9"/>
    </g>
    <g id="Building_11" data-name="Building_1">
      <g id="Building5" data-name="Building">
        <rect class="st0" x="592.5" y="45.3" width="267.8" height="652.4"/>
      </g>
      <rect id="Roof5" data-name="Roof" class="st6" x="556.7" width="339.4" height="45.3"/>
      <rect id="Door1" data-name="Door" class="st6" x="678.9" y="434.7" width="95.1" height="177"/>
      <g id="Windows1" data-name="Windows">
        <rect id="Window_31" data-name="Window_3" class="st5" x="646.3" y="310.4" width="160.3" height="49.4"/>
        <rect id="Window_25" data-name="Window_2" class="st5" x="646.3" y="195.4" width="160.3" height="49.4"/>
        <rect id="Window_15" data-name="Window_1" class="st5" x="646.3" y="80.5" width="160.3" height="49.4"/>
      </g>
    </g>
  </g>
  <g>
    <path class="st4" d="M13.6,697.7c-18.1-41.6-18.1-149.4-.3-191.2,17.8-41.8,42.4-81.1,52.7-125.3,9-38.4,6.7-78.9,17-116.9,10.4-38.1,33.9-73,66.8-95,32.8-22,74.9-30.5,113.3-20.9,38.3,9.6,72,37.8,86.3,74.7,19.5,50.4,2.3,108,14.4,160.7,6.5,28,20.9,53.4,31,80.3,19.6,52.5,7,179.8-8.5,233.6H13.6Z"/>
    <g>
      <line class="st1" x1="225.7" y1="250.4" x2="225.7" y2="697.7"/>
      <line class="st1" x1="225.7" y1="374.3" x2="283" y2="286.7"/>
      <line class="st1" x1="225.7" y1="502.1" x2="277.1" y2="431.4"/>
      <line class="st1" x1="225.7" y1="374.3" x2="161.5" y2="286.7"/>
      <line class="st1" x1="225.7" y1="502.1" x2="161.5" y2="431.4"/>
    </g>
  </g>
</svg>