<?xml version="1.0" encoding="UTF-8"?>
<svg id="Layer_1" xmlns="http://www.w3.org/2000/svg" version="1.1" viewBox="0 0 1414.7 1322.4">
  <!-- Generator: Adobe Illustrator 29.8.5, SVG Export Plug-In . SVG Version: 2.1.1 Build 2)  -->
  <defs>
    <style>
      .st0 {
        fill: #99b53c;
      }

      .st1 {
        stroke: #95d4e9;
        stroke-width: 6.4px;
      }

      .st1, .st2 {
        fill: none;
        stroke-linecap: round;
        stroke-linejoin: round;
      }

      .st3 {
        fill: #eae4dc;
      }

      .st4 {
        fill: #83a83f;
      }

      .st2 {
        stroke: #eae4dc;
        stroke-width: 3.4px;
      }
    </style>
  </defs>
  <g>
    <path class="st3" d="M738.8,845.7c-24.1-40.3-26.6-90.2-6.6-132.8,31.7-67.1,34.4-148.7,11-220-24.5-74.8-74.3-138.9-133-191.8-32.8-29.6-49.9-72.9-46.5-116.9h0c4.2-54.1-10.8-93.8-33-122.8-63-82.1-188.9-81.8-251.8.3-22.2,29-37.2,68.6-33,122.5h0c3.4,44.1-13.7,87.3-46.5,116.9-58.8,52.9-108.5,117-133,191.8-23.4,71.4-20.7,152.9,11,220,20.1,42.5,17.6,92.4-6.6,132.8C.6,963.2-20.6,1184.4,21.7,1311.6c259.3,14.1,512.6,14.7,759.3,0,42.2-127.2,28.2-348.4-42.1-465.8Z"/>
    <g>
      <line class="st1" x1="405.2" y1="326.9" x2="405.2" y2="1317"/>
      <line class="st1" x1="408" y1="729.1" x2="514.8" y2="583.4"/>
      <line class="st1" x1="405.2" y1="583.4" x2="298.4" y2="437.7"/>
      <line class="st1" x1="405.2" y1="1001.6" x2="317.1" y2="884.1"/>
    </g>
  </g>
  <path class="st0" d="M1111.4,1098.9c25-38,26.1-87.6,4-127.3-22.1-39.8-66.6-68.6-115.3-74.6,5.6-27.2,10.1-66,3.4-91.1-6.7-25.1-24-48.8-49.8-59.7-36.5-15.5-83.2-1-107,28.4-23.8,29.4-26.6,69.9-13.9,104.5-1.1,1.8-.9,1.8-.7,1.8-42,14.8-75.1,49-85.6,88.7-10.5,39.7,1.8,83.7,32,114.1-64.1,32.8-103.8,103.4-92.1,168.5l11.6,64.8h488.8l5.8-66.7h0c1.2-13.1,5.3-97.5-81.2-151.4Z"/>
  <path class="st4" d="M1402.5,1185.8c-12.8-18.9-31.9-34.6-44.8-53.5-15.7-23-22.6-50.8-46.7-68.5-28.2-20.7-77-19.7-103.8,2.1-20.6,16.8-26.9,41.3-38.8,62.8-11.1,20.1-27.5,38-39.1,57.9-9.3,16-15.1,34.2-12,51.4h-.2s7.5,79,7.5,79h262.3l23.9-75h-.1c8.1-17.3,2.7-40-8.3-56.2Z"/>
  <g>
    <g>
      <line class="st2" x1="916.6" y1="853.9" x2="916.6" y2="1317"/>
      <line class="st2" x1="916.6" y1="1059.3" x2="978.3" y2="980.8"/>
      <line class="st2" x1="916.6" y1="1155.4" x2="869.3" y2="1088.2"/>
    </g>
    <line class="st2" x1="1258.7" y1="1119.9" x2="1258.7" y2="1317"/>
  </g>
</svg>