<?xml version="1.0" encoding="UTF-8"?>
<svg id="Layer_1" xmlns="http://www.w3.org/2000/svg" version="1.1" viewBox="0 0 1172.6 669.2">
  <!-- Generator: Adobe Illustrator 30.3.0, SVG Export Plug-In . SVG Version: 2.1.3 Build 182)  -->
  <defs>
    <style>
      .st0 {
        fill: #d6d729;
      }

      .st1 {
        fill: #95d4e9;
      }

      .st2 {
        stroke: #eae5dc;
        stroke-width: 3px;
      }

      .st2, .st3, .st4, .st5 {
        fill: none;
      }

      .st2, .st4, .st5 {
        stroke-linejoin: round;
      }

      .st2, .st5 {
        stroke-linecap: round;
      }

      .st3 {
        stroke: #eae4dc;
      }

      .st3, .st6 {
        stroke-miterlimit: 10;
      }

      .st3, .st5 {
        stroke-width: 3.3px;
      }

      .st7 {
        fill: #004d6e;
      }

      .st8 {
        fill: #d9d8d6;
      }

      .st4 {
        stroke: #013d5b;
        stroke-width: 6.5px;
      }

      .st9 {
        fill: #99b53c;
      }

      .st6 {
        fill: #83a83f;
        stroke: #83a83f;
        stroke-width: 4px;
      }

      .st10 {
        fill: #88a750;
      }

      .st11 {
        fill: #e5e03d;
      }

      .st5 {
        stroke: #004d6e;
      }
    </style>
  </defs>
  <path id="Tree_2" class="st9" d="M1072.9,419c-10.2-16.5-11.2-37-2.8-54.4,13.3-27.5,14.5-60.9,4.6-90.1-10.4-30.6-31.3-56.9-56.1-78.5-13.8-12.1-21.1-29.8-19.6-47.9h0c1.8-22.2-4.5-38.4-13.9-50.3-26.6-33.6-79.6-33.5-106.2.1-9.4,11.9-15.7,28.1-13.9,50.1h0c1.4,18.1-5.8,35.8-19.6,47.9-24.8,21.7-45.7,47.9-56.1,78.5-9.9,29.2-8.7,62.6,4.6,90.1,8.5,17.4,7.4,37.8-2.8,54.4-29.6,48.1-38.5,197.3-20.7,249.4,111,1.8,217.8.3,320.1,0,17.8-52.1,11.9-201.3-17.7-249.4Z"/>
  <g>
    <rect class="st11" x="301.3" y="576.3" width="528" height="92.5"/>
    <polygon class="st10" points="8.9 580.7 28.6 633.8 40.4 668.8 303.5 668.8 333 518.9 8.9 580.7"/>
    <g>
      <g>
        <g>
          <g>
            <path class="st10" d="M310.9,580.7c13.9-31,7.8-70.3-5.9-101.4-13.7-31.1-32.5-60.5-40.5-93.4-6.9-28.6-5.1-58.8-13.1-87.1-8-28.4-26.1-54.4-51.3-70.8-25.2-16.4-57.5-22.7-86.9-15.6-29.4,7.2-55.3,28.2-66.2,55.7-15,37.6-1.7,80.5-11.1,119.8-5,20.9-16.1,39.8-23.8,59.9-15,39.1-15.3,92.9-3.4,133h302Z"/>
            <g>
              <line class="st2" x1="142.1" y1="288.4" x2="142.1" y2="652.3"/>
              <line class="st2" x1="142.1" y1="380.7" x2="98.1" y2="315.5"/>
              <line class="st2" x1="142.1" y1="476" x2="102.6" y2="423.3"/>
              <line class="st2" x1="142.1" y1="380.7" x2="191.3" y2="315.5"/>
              <line class="st2" x1="142.1" y1="476" x2="191.3" y2="423.3"/>
            </g>
          </g>
          <path id="Tree_1" class="st10" d="M1167.9,582.2c8.5-11.2,5.4-29-1.7-41-7.1-12-17.8-22-25-34-8.8-14.6-12.6-32.3-26.1-43.6-15.7-13.1-43-12.5-57.9,1.4-11.5,10.7-15,26.2-21.7,39.9-6.2,12.8-15.3,24.2-21.8,36.8-6.5,12.6-10.1,27.5-4.5,40.5h158.7Z"/>
          <g>
            <g id="Bank">
              <polygon id="Inner_shaddow_fill" class="st11" points="369.9 232.7 369.9 580.7 782.5 580.7 782.5 232.4 369.9 232.7"/>
              <polygon id="Facade" class="st0" points="877.8 203.3 904.1 203.3 570.6 -.1 244.7 203.3 280.1 203.3 280.1 241.5 289.5 241.5 289.5 580.7 370.7 580.7 370.7 241.5 781 241.5 781 668.8 861.3 668.8 861.3 241.5 877.8 241.5 877.8 203.3"/>
              <g id="Lintel">
                <line class="st4" x1="280.2" y1="206.5" x2="878" y2="206.5"/>
                <line class="st4" x1="289.5" y1="244.8" x2="370.2" y2="244.8"/>
                <line class="st4" x1="781.5" y1="244.8" x2="858.6" y2="244.8"/>
              </g>
            </g>
            <g>
              <path class="st6" d="M485.8,316.7h1.9c36.4,0,66,29.6,66,66v83.4h-133.9v-83.4c0-36.4,29.6-66,66-66Z"/>
              <path class="st6" d="M661.1,316.7h1.9c36.4,0,66,29.6,66,66v83.4h-133.9v-83.4c0-36.4,29.6-66,66-66Z"/>
            </g>
            <rect class="st4" x="409.2" y="466.1" width="155.3" height="22.4"/>
            <rect class="st4" x="584.4" y="466.1" width="155.3" height="22.4"/>
          </g>
        </g>
        <g id="Light">
          <g id="Phone">
            <rect id="Phone_Screen" class="st8" x="198.6" y="167.7" width="242.5" height="372.9"/>
            <path id="Phone_Bottom" class="st7" d="M214.3,540.5h211.2c8.6,0,15.6,7,15.6,15.6v25h-242.5v-25c0-8.6,7-15.6,15.6-15.6Z" transform="translate(639.7 1121.7) rotate(180)"/>
            <circle id="Home_Button" class="st3" cx="319.9" cy="560.8" r="9.6"/>
            <path id="Phone_Top" class="st7" d="M214.3,146.4h211.2c8.6,0,15.6,7,15.6,15.6v5.6h-242.5v-5.6c0-8.6,7-15.6,15.6-15.6Z"/>
          </g>
          <g id="Bottom_Module">
            <rect id="Rectangle" class="st1" x="226.2" y="416" width="187.3" height="97.2"/>
            <g id="Lines">
              <line class="st5" x1="263" y1="448.3" x2="376.7" y2="448.3"/>
              <line class="st5" x1="263" y1="481" x2="376.7" y2="481"/>
            </g>
          </g>
          <rect id="Top_Module" class="st1" x="226.2" y="196.1" width="187.3" height="196.3"/>
        </g>
      </g>
      <path class="st10" d="M1009.2,582.2s20,48,13.9,86.3l133.5.5s-9-45.1,11.2-86.9h-158.7Z"/>
    </g>
  </g>
</svg>