<?xml version="1.0" encoding="UTF-8"?>
<svg id="Layer_1" xmlns="http://www.w3.org/2000/svg" version="1.1" viewBox="0 0 1362.9 1050.4">
  <!-- Generator: Adobe Illustrator 30.3.0, SVG Export Plug-In . SVG Version: 2.1.3 Build 182)  -->
  <defs>
    <style>
      .st0 {
        fill: #99b53c;
      }

      .st1 {
        fill: #83a83f;
      }

      .st2 {
        fill: none;
        stroke: #eae4dc;
        stroke-linecap: round;
        stroke-linejoin: round;
        stroke-width: 7.1px;
      }
    </style>
  </defs>
  <path class="st0" d="M796.8,670c46.7-70.9,48.6-163.4,7.4-237.6-41.2-74.2-124.3-128-215.2-139.2,10.4-50.7,18.9-123.2,6.4-170-12.6-46.7-44.7-91-92.8-111.4-68-28.9-155.2-1.8-199.6,53.1-44.5,54.9-49.7,130.5-25.9,195-2.1,3.3-1.7,3.3-1.4,3.3-78.4,27.7-140.1,91.5-159.7,165.5-19.6,74,3.4,156.2,59.7,212.8C56,702.7-18,834.4,3.8,956l37.4,90.8h901.7s5-90.8,5-90.8c0-.6,23.8-177.1-151.1-286Z"/>
  <path class="st1" d="M815.1,952.5l27.3,94.4h503.3l-4.9-4.7c-24.2-23.1-24.2-61.7,0-84.9l4.9-4.7h-530.6Z"/>
  <g>
    <path class="st1" d="M1345.7,952.5c28.4-33,18.2-85.1-5.7-120.3-23.9-35.2-59.5-64.6-83.6-99.8-29.4-42.9-42.1-94.8-87.2-127.9-52.6-38.6-143.6-36.7-193.7,4-38.5,31.3-50.3,77-72.5,117.1-20.7,37.4-51.3,70.9-72.9,108.1-21.6,37.1-33.7,80.7-15.1,118.8h530.6Z"/>
    <g>
      <line class="st2" x1="433.3" y1="213" x2="433.3" y2="956"/>
      <line class="st2" x1="433.3" y1="596.2" x2="548.5" y2="449.7"/>
      <line class="st2" x1="433.3" y1="775.4" x2="345.1" y2="650.1"/>
    </g>
    <line class="st2" x1="1071.8" y1="709.2" x2="1071.8" y2="1046.8"/>
  </g>
</svg>