<?xml version="1.0" encoding="UTF-8"?>
<svg id="Layer_1" xmlns="http://www.w3.org/2000/svg" version="1.1" viewBox="0 0 1020.7 851.9">
  <!-- Generator: Adobe Illustrator 29.8.5, SVG Export Plug-In . SVG Version: 2.1.1 Build 2)  -->
  <defs>
    <style>
      .st0 {
        fill: #d6d729;
      }

      .st1 {
        fill: #99b53c;
      }

      .st2 {
        fill: #eae4dc;
      }

      .st3 {
        fill: #88a750;
      }

      .st4 {
        fill: none;
        stroke: #004d6e;
        stroke-linecap: round;
        stroke-linejoin: round;
        stroke-width: 3.3px;
      }
    </style>
  </defs>
  <g id="Light_1">
    <g id="flag">
      <polygon id="flag1" data-name="flag" class="st0" points="273 73.5 273 1.6 343 37.6 273 73.5"/>
      <line id="stand" class="st4" x1="273" y1="123.1" x2="273" y2="1.6"/>
    </g>
    <g id="hills">
      <path id="hill_-_back" class="st3" d="M912.9,786.1l-38.9.7H134.4c180.3,0,317.2-470.3,497.3-470.3s281.2,469.6,281.2,469.6Z"/>
      <path id="hill_-_front" class="st1" d="M271.2,123.1C66.6,123.1,0,788.3,0,788.3h504.9s317.8-.6,310.1-1.8C569.5,748.5,464.2,123.1,271.2,123.1Z"/>
      <path id="lower_path" class="st2" d="M702.7,788.3c-22.6,0-229.8-25-252.3-28.2-55.7-8.4-111.8-23.3-160.6-51.6-16.8-10.3-36.2-24.2-43-42.2-4.7-14,.6-21.3,13.4-27.8,14.5-7.2,30.6-10.6,46.8-13.7,33.8-6.1,69.1-8.9,103.5-13.8,17.8-2.6,35.9-5.4,53.3-11.2,9.5-3.3,20.2-7.9,27.2-16.7,9.4-11.5,6.7-27.4-3.7-37.1-10-9.6-21.2-14.6-33.2-19.8-11.2-4.7-22.4-8.5-33.6-12.2-97.3-33.4-332.9-73.3-313.1-211.3-4.1,10.3-8.1,20.9-11.9,31.6,0,.8.2,1.5.3,2.3,8.6,62.6,67.6,100.7,120.1,125.6,42.6,20.1,87.5,34.6,132.2,48.6,33.1,10.6,66.6,19.9,98.3,33.4,9.2,4.1,19.7,9.2,26.5,15.9,2.2,2.5,3.6,4.1,3.3,7-.6,2.7-2.8,4.6-5.6,6.4-3.6,2.3-8.4,4.3-13.4,5.9-15.9,5-32.6,7.2-49.5,9.4-46.8,6.1-94.3,7.2-140.3,20.7-16.3,5.3-34.3,12.9-42.8,29.7-8.6,17.6-2.1,39.2,9.1,53.7,43.1,54.9,150.6,86.1,233.5,95.2h235.8Z"/>
      <path id="upper_path" class="st2" d="M385.6,365.7c32.4,3.8,65.6,2.9,97.7-4.5-1.9-3.6-3.7-7.2-5.6-10.8-63,14.7-131.2,5.1-190.2-20.8-59.2-25.7-121.3-79.7-113.5-149.8-1.7,2.1-3.4,4.3-5,6.5-.9,14,.8,28.2,5.1,41.6,28.3,83.4,129.8,128,211.6,137.8Z"/>
    </g>
  </g>
  <polygon class="st3" points="774.1 851.9 915.9 851.9 912.9 786.1 774.1 786.2 774.1 851.9"/>
  <polygon class="st1" points="1020.7 851.9 0 851.9 0 788.3 815 786.5 1020.7 851.9"/>
  <polygon class="st2" points="455.2 786.9 787.9 851.9 1006.2 851.9 681.6 786.8 455.2 786.9"/>
</svg>