<?xml version="1.0" encoding="UTF-8"?>
<svg id="Layer_1" xmlns="http://www.w3.org/2000/svg" version="1.1" viewBox="0 0 1333.6 1011.3">
  <!-- Generator: Adobe Illustrator 29.8.5, SVG Export Plug-In . SVG Version: 2.1.1 Build 2)  -->
  <defs>
    <style>
      .st0 {
        fill: #99b53c;
      }

      .st1 {
        fill: none;
        stroke: #eae4dc;
        stroke-linecap: round;
        stroke-linejoin: round;
        stroke-width: 6.2px;
      }

      .st2 {
        fill: #83a83f;
      }
    </style>
  </defs>
  <path class="st0" d="M779.6,655.5c45.7-69.4,47.6-159.9,7.3-232.5-40.3-72.6-121.7-125.2-210.6-136.2,10.1-49.6,18.5-120.6,6.2-166.3-12.3-45.7-43.8-89-90.8-109-66.6-28.3-151.8-1.8-195.3,51.9-43.5,53.7-48.6,127.7-25.3,190.8-2.1,3.3-1.7,3.3-1.3,3.3-76.7,27.1-137.1,89.5-156.3,162-19.2,72.4,3.4,152.9,58.4,208.3C54.7,687.5-17.7,816.5,3.7,935.4l30,72.7h884.7l9.1-72.7c0-.6,23.3-173.2-147.9-279.9Z"/>
  <polygon class="st2" points="797.6 931.9 824.3 1008.1 1271 1008.1 1316.7 931.9 797.6 931.9"/>
  <g>
    <path class="st2" d="M1316.7,931.9c27.8-32.3,17.8-83.3-5.6-117.7-23.4-34.5-58.2-63.3-81.8-97.6-28.7-42-41.2-92.8-85.3-125.1-51.5-37.8-140.5-35.9-189.5,3.9-37.7,30.6-49.2,75.4-70.9,114.6-20.3,36.6-50.2,69.4-71.3,105.7-21.1,36.3-33,79-14.7,116.3h519.1Z"/>
    <g>
      <line class="st1" x1="424" y1="208.4" x2="424" y2="935.4"/>
      <line class="st1" x1="424" y1="583.4" x2="536.7" y2="440"/>
      <line class="st1" x1="424" y1="758.7" x2="337.6" y2="636.1"/>
    </g>
    <line class="st1" x1="1048.7" y1="694" x2="1048.7" y2="1008.1"/>
  </g>
</svg>