<?xml version="1.0" encoding="UTF-8"?>
<svg id="Layer_1" xmlns="http://www.w3.org/2000/svg" version="1.1" viewBox="0 0 600 600">
  <!-- Generator: Adobe Illustrator 29.8.5, SVG Export Plug-In . SVG Version: 2.1.1 Build 2)  -->
  <defs>
    <style>
      .st0 {
        fill: #003a5d;
      }
    </style>
  </defs>
  <path class="st0" d="M30,195h11.01c.03,3.65-.06,7.34,0,11-3.66,0-7.35,0-11.01,0-.03-3.66.06-7.35,0-11.01Z"/>
  <path class="st0" d="M63,195c-.02,10.98.01,22.02,0,33h-22c-.08-7.32.1-14.68,0-22,3.66,0,7.35,0,11.01,0v-11.01c3.65-.03,7.34.06,10.99,0Z"/>
  <path class="st0" d="M448,183.98h11.02v11.03h-11.02c.06-3.67-.02-7.36,0-11.03Z"/>
  <path class="st0" d="M481,206c-3.66-.03-7.35.02-11.01,0v-11.01s11.01,0,11.01,0v11.01c3.65.03,7.34-.02,11,0v11.01s32.99,0,32.99,0v11h33c.04-3.65-.05-7.35,0-11-3.66-.03-7.35.02-11,0v-22h11.01c-.09,7.31.1,14.68,0,22,3.66.03,7.35-.02,11.01,0,0,10.99-.03,22.02,0,33.01-1.81.02-10.86-.48-11.02.58v10.43c3.67.02,7.36-.03,11.02,0-.02,3.66.06,7.34,0,11-7.32.04-14.68-.03-22.01,0v11.01h22.01c.04-3.65-.06-7.35,0-11,3.66-.02,7.34.06,11,0,.03,3.66-.02,7.35,0,11.01h11.01s0,10.99,0,10.99h-44c.12,10.98-.16,22.02,0,33-3.65.05-7.35-.04-11,0v22h-11.01s0-11,0-11h-33v11.01s-10.42.01-10.42.01l-.57-11.02c-3.66-.03-7.35.06-11.01,0,.03-3.66-.02-7.35,0-11.01h11.01s0-21.99,0-21.99h11.01c.02-10.98-.05-22.01,0-33,7.32-.1,14.69.07,22.01,0,.02-3.66-.04-7.35,0-11.01,3.66.05,7.35-.04,11.01,0v11.01s10.99,0,10.99,0v-22h-22c-.02,3.65.03,7.34,0,11-7.32-.1-14.68.1-22,0,.06-3.66-.04-7.35,0-11.01h11.01s0-21.99,0-21.99h-11.01s0,11,0,11h-33v22c-3.66,0-7.34,0-11,0-.06-3.66.04-7.35,0-11.01h-11.01s0,11.01,0,11.01h11.01c.06,3.64.06,7.35,0,10.99-10.99.05-22.02-.04-33.01,0v-11.01s-10.99,0-10.99,0v22c-3.65.04-7.35-.05-11,0,0-3.66,0-7.35,0-11.01h-11.01c-.02-3.65.04-7.34,0-10.99,3.66-.03,7.35.02,11.01,0v-11.01s32.99,0,32.99,0v-33h11.01s0,11,0,11h22v-11h22c0-3.66,0-7.34,0-11ZM536,283h-33v33h33v-33Z"/>
  <path class="st0" d="M536.02,580v11.02h-11.03v-11.02c3.67-.06,7.37-.06,11.03,0Z"/>
  <path class="st0" d="M250.02,580v11.02h-11.03v-11.02c3.67.06,7.37.06,11.03,0Z"/>
  <path class="st0" d="M206,217c.05,3.65-.04,7.35,0,11h22v22c-3.66-.06-7.35.04-11.01,0v-11.01s-21.99,0-21.99,0v11h-33c0,3.66,0,7.34,0,11-3.66-.05-7.35.04-11.01,0v-11.01s-10.42-.01-10.42-.01l-.57,11.02c-3.66,0-7.35,0-11.01,0,.03-7.32-.02-14.68,0-22h44c.04-3.65-.05-7.35,0-11,7.32.1,14.69-.08,22.01,0v-11.01c3.65-.02,7.34.04,10.99,0Z"/>
  <path class="st0" d="M239,217c7.32.11,14.68-.08,22,0v22h-11.01c-.03,3.65.06,7.34,0,11-3.66-.06-7.34.03-11,0-.15-10.96-.16-22.04,0-33Z"/>
  <path class="st0" d="M294,217c3.66.05,7.35-.04,11.01,0v11.01s11-.01,11-.01c.02,3.66-.04,7.35,0,11.01-10.98.16-22.02-.16-33,0-.03,3.66.02,7.35,0,11.01h-11.01s0-11.01,0-11.01c3.66-.03,7.35.06,11.01,0,.03-3.66-.02-7.35,0-11.01h11.01c.02-3.65-.04-7.34,0-10.99Z"/>
  <path class="st0" d="M360,217c0,3.66,0,7.35,0,11.01-3.66.03-7.35-.06-11.01,0,.06-3.66-.04-7.35,0-11.01,3.66,0,7.35,0,11.01,0Z"/>
  <path class="st0" d="M547,173c-.03,3.66.02,7.35,0,11.01h-10.43c-1.06-.15-.55-9.2-.58-11.01,3.66-.06,7.34.06,11,0Z"/>
  <path class="st0" d="M118,580c-.05,3.66.04,7.35,0,11.01h-10.43c-1.06-.15-.55-9.2-.58-11.01,3.66.06,7.34-.02,11,0Z"/>
  <path class="st0" d="M349,228c-.06,3.66.02,7.34,0,11-3.66.05-7.35-.04-11.01,0-.03,3.66.06,7.35,0,11.01-7.32-.04-14.68.03-22.01,0-.02-3.66.04-7.35,0-11.01,3.66-.05,7.35.04,11.01,0v-11.01c7.31-.07,14.68.11,21.99,0Z"/>
  <path class="st0" d="M382,569c-.03,7.32.02,14.68,0,22h-22c0-3.66,0-7.34,0-11,3.66,0,7.35,0,11.01,0,.03-3.66-.06-7.35,0-11.01,3.66-.06,7.34.06,11,0Z"/>
  <path class="st0" d="M338,173c-.05,3.66.04,7.35,0,11.01-3.66,0-7.35-.01-11.01,0,.06-3.65.01-7.35,0-11,3.66-.06,7.34.06,11,0Z"/>
  <path class="st0" d="M272,173c-.06,3.66.02,7.34,0,11-1.79,0-10.86.46-11.02-.58v-10.43c3.67-.03,7.36.06,11.02,0Z"/>
  <path class="st0" d="M371,239c.05,3.66-.04,7.35,0,11.01h11.01c.02,3.65-.04,7.34,0,10.99-3.66.03-7.35-.02-11.01,0-.02,7.32.04,14.68,0,22.01-1.81.02-10.86-.48-11.02.58v10.43c3.67.03,7.36-.06,11.02,0,.03,7.32-.02,14.68,0,22h22v11h-22c0,3.66,0,7.34,0,11-7.32-.03-14.68.1-22,0,.06-3.66-.04-7.35,0-11.01h11.01s0-10.99,0-10.99h-22c-.02-3.65.03-7.34,0-11,3.66-.03,7.35.02,11.01,0,.03-10.99-.06-22.02,0-33.01,3.65-.06,7.35.04,11,0v-22c-3.65-.04-7.35.06-11,0,.02-3.66-.02-7.34,0-11,7.32-.1,14.68.03,22,0Z"/>
  <path class="st0" d="M30,261c.21,14.64-.16,29.35,0,44h22v-33h11v-22h22c0,3.66,0,7.34,0,11-3.66.05-7.35-.04-11.01,0v11.01s11.01,0,11.01,0v-11.01c7.31-.1,14.68.07,22,0v-11.01s10.42-.01,10.42-.01l.57,11.02c3.66,0,7.35,0,11.01,0-.02,3.66-.02,7.34,0,11h-22v33h33v11.01c3.65.03,7.34-.06,11,0-.03,7.32.02,14.68,0,22.01h-11.01s.01-11.01.01-11.01c-7.32-.07-14.69.11-22.01,0-.05-3.66.04-7.35,0-11.01h-11.01s0,11.01,0,11.01c3.66.03,7.35-.06,11.01,0,.1,7.3.1,14.7,0,22-3.66-.05-7.35.04-11.01,0v-11.01s-11,.01-11,.01v-11.01c-18.31-.05-36.68.08-54.99,0-.05-3.65.04-7.35,0-11h-22v11.01c7.32.01,14.68-.04,22,0,.11,7.32-.1,14.68,0,22,3.66-.03,7.35.02,11.01,0v-11.01s10.99,0,10.99,0v22h22v11h-22v11.01s-11,0-11,0v-22h-11.01c-.03-3.65.06-7.34,0-11-3.66.03-7.35-.02-11,0v22h-11v-22h-11v-55h11v-33c3.65-.02,7.34.03,11,0ZM96,283h-33v33h33v-33Z"/>
  <path class="st0" d="M558,162c-.03,3.66.02,7.35,0,11.01-3.66.03-7.35-.06-11.01,0,.03-3.66-.02-7.35,0-11.01,3.66-.03,7.35.06,11.01,0Z"/>
  <path class="st0" d="M239,250c.05,3.66-.04,7.35,0,11.01,3.66.03,7.35-.06,11.01,0-.04,7.32.03,14.69,0,22.01-14.65.04-29.35-.07-44.01,0,.06-3.65.06-7.35,0-11,7.32-.1,14.69.07,22.01,0,0-7.32,0-14.68,0-22.01,3.66.06,7.34-.03,11,0Z"/>
  <path class="st0" d="M107,52c-3.65-.06-7.35.04-11,0V19h11.01s0-11,0-11h33c.02,3.65-.03,7.34,0,11-3.65.05-7.35-.04-11,0v33c-3.65.04-7.35-.06-11,0-.01-2.39.51-21.85-.58-22.02h-10.43c-.07,7.33.11,14.7,0,22.02Z"/>
  <path class="st0" d="M250,250c3.66.06,7.35-.04,11.01,0,.03,3.66-.06,7.35,0,11.01-3.66-.02-7.34.06-11,0,.02-3.66-.06-7.34,0-11Z"/>
  <path class="st0" d="M261,261c7.32.04,14.68-.03,22.01,0v11.01s10.99,0,10.99,0v-22h11v22c10.98-.03,22.02.05,33,0-.05,3.66.04,7.35,0,11.01h-11.01s-.01,10.42-.01,10.42l11.02.57c.02,3.66-.04,7.35,0,11.01-3.66.03-7.35-.02-11.01,0,0,7.32,0,14.68,0,22.01-3.66,0-7.35,0-11.01,0v11.01s-32.99,0-32.99,0v-11.01s-11.01.01-11.01.01v-11.01c-3.65-.03-7.34.06-10.99,0,.03-3.66-.02-7.35,0-11.01l11.02-.57v-10.43s-11.02.01-11.02.01c-.11-10.98.16-22.02,0-33.01ZM316,283h-33v33h33v-33Z"/>
  <path class="st0" d="M349,250c-.03,7.32.04,14.68,0,22-3.66.06-7.34-.02-11,0,.1-7.32-.1-14.68,0-22,3.66.02,7.34-.06,11,0Z"/>
  <path class="st0" d="M371,162c-.06,1.83.5,10.86-.58,11.02h-10.43c-.02-3.67.04-7.36,0-11.02,3.66-.06,7.34.06,11,0Z"/>
  <path class="st0" d="M448,272c7.32-.03,14.68.02,22,0v-22h11.01s-.01,11.01-.01,11.01c3.66.03,7.35-.06,11.01,0-.06,3.66.02,7.34,0,11-3.66.05-7.35-.04-11.01,0v11.01s-21.99,0-21.99,0c-.04,3.65.05,7.35,0,11,3.65.05,7.35-.04,11,0v22h-11.01c.09-7.31-.1-14.68,0-22-7.32-.11-14.69.07-22.01,0v-11.01s11.01.01,11.01.01c.03-3.66-.06-7.35,0-11.01Z"/>
  <path class="st0" d="M272,173c.06-3.66-.04-7.35,0-11.01h10.43c1.03.14.58,9.21.58,11.01-3.66,0-7.35-.06-11,0Z"/>
  <path class="st0" d="M73.98,173v-11.02h11.03v11.02c-3.67.06-7.36,0-11.03,0Z"/>
  <path class="st0" d="M569,250c7.32-.1,14.68.07,22,0v22c-3.65.04-7.35-.06-11,0-.03-3.66.02-7.35,0-11.01-3.66-.02-7.35.03-11.01,0,.02-3.66,0-7.34,0-11Z"/>
  <path class="st0" d="M162,261c14.65.21,29.36-.15,44.01,0,.03,3.66-.06,7.35,0,11.01-3.66.05-7.35-.04-11.01,0,0,3.66.01,7.35,0,11.01-3.66.02-7.34-.06-11,0-.05-3.65.04-7.35,0-11h-22v-11Z"/>
  <path class="st0" d="M569,151c-.06,3.65-.06,7.35,0,11,7.32.03,14.68-.02,22,0v77h-11v-33h-11v-22h11.01s.01-10.42.01-10.42l-11.02-.57c-.03-3.66.06-7.35,0-11.01-3.65-.01-7.35-.06-11,0,.03-3.66-.02-7.35,0-11.01,3.66-.02,7.35.03,11.01,0Z"/>
  <path class="st0" d="M437,151c3.66.05,7.35-.04,11.01,0-.04,10.99.04,22.02,0,32.99h-11.02v11.03h11.02c-.06,3.64.04,7.33,0,10.98h-33v33c-14.65.05-29.35-.07-44,0-.1-7.32.07-14.69,0-22.01-3.66,0-7.35,0-11.01,0,0-3.66,0-7.35,0-11.01h-11.01s0-21.99,0-21.99h11.01s-.01,11.01-.01,11.01h11.01s0,10.99,0,10.99h22v-44h44c.04-3.65-.05-7.35,0-11ZM426,173h-11v22h11v-22ZM404,217h-22v11h22v-11Z"/>
  <path class="st0" d="M382,151c-.06,3.66.04,7.35,0,11.01-3.66.03-7.35-.06-11.01,0,.11-3.65-.08-7.35,0-11.01,3.66-.03,7.35.06,11.01,0Z"/>
  <path class="st0" d="M294,173c0-3.66,0-7.34,0-11h22v-11.01s11.01,0,11.01,0c.01,7.32-.03,14.68,0,22.01-3.66.06-7.35-.04-11.01,0v10.43c.14,1.03,9.21.58,11.01.58-.06,3.65.04,7.35,0,11h-22v11.01s-11.01-.01-11.01-.01c-.02,3.66.04,7.35,0,11.01-7.32-.1-14.69.07-22.01,0,.04-10.99-.04-22.02,0-33.01,3.66,0,7.35,0,11.01,0,0-3.66-.01-7.35,0-11.01,3.66,0,7.35-.06,11,0v11.01s11.01,0,11.01,0v-11.01c-3.66-.03-7.35.06-11.01,0Z"/>
  <path class="st0" d="M580,140c-.06,3.66.04,7.35,0,11.01-3.66.02-7.35-.03-11.01,0,.06-3.66-.04-7.35,0-11.01,3.65-.08,7.35.12,11.01,0Z"/>
  <path class="st0" d="M129,272c7.32,0,14.68,0,22.01,0,.03,3.66-.06,7.35,0,11.01-3.66,0-7.35,0-11.01,0v11.01s-11,0-11,0c-.02-7.32.04-14.68,0-22.01Z"/>
  <path class="st0" d="M338,140c3.66.05,7.35-.04,11.01,0v11.01s11-.01,11-.01c.02,3.66-.04,7.35,0,11.01-3.66.06-7.35-.04-11.01,0v11.01c-3.65.03-7.34-.06-10.99,0,.15-10.98-.16-22.02,0-33Z"/>
  <path class="st0" d="M162,140c3.66.05,7.35-.04,11.01,0v10.43c-.15,1.06-9.2.55-11.01.58-.06-3.66.06-7.34,0-11Z"/>
  <path class="st0" d="M140,19c7.32-.11,14.68.08,22,0v22h11V8h11.01s.57,11.02.57,11.02h10.43s0-11.02,0-11.02h33c.04,3.65-.05,7.35,0,11-7.32.03-14.68-.02-22.01,0-.03,3.66.06,7.35,0,11.01,3.66,0,7.34,0,11,0v33h-11.01c.12-10.98-.15-22.02,0-33h-11.01s.01,11.01.01,11.01h-11.01c0,3.65,0,7.34,0,10.99,3.66.05,7.35-.04,11.01,0v11.01s-11.01,0-11.01,0c0-3.66,0-7.35,0-11.01-7.32-.1-14.69.08-22.01,0-.03,3.66.06,7.35,0,11.01,3.65.05,7.35-.04,11,0v22h-11.01c.08-7.31-.1-14.68,0-22-7.3-.11-14.7-.1-22,0,.06-3.66-.04-7.35,0-11.01h11.01s0-21.99,0-21.99h-11.01c-.02-3.65.04-7.34,0-11Z"/>
  <path class="st0" d="M151,283c3.66,0,7.35,0,11.01,0l.57,11.02h10.43s-.01-11.02-.01-11.02c3.66-.03,7.35.06,11.01,0,.11,7.3.1,14.7,0,22-7.32-.1-14.69.08-22.01,0-.03,3.66.06,7.35,0,11.01-3.65.01-7.35.06-11,0,.05-10.97.16-22.03,0-33Z"/>
  <path class="st0" d="M206,283c-.06,3.66.04,7.35,0,11.01h-10.43c-1.03-.14-.58-9.21-.58-11.01,3.66-.02,7.34.02,11,0Z"/>
  <path class="st0" d="M239,19c0-1.79-.46-10.86.58-11.02h10.43c.03,3.67-.06,7.36,0,11.02-3.66-.06-7.34.02-11,0Z"/>
  <path class="st0" d="M30,140c.06,3.66-.04,7.35,0,11.01,3.66,0,7.35,0,11.01,0,.1,7.32-.08,14.69,0,22.01-3.66.02-7.35-.04-11.01,0,.1,7.32-.1,14.68,0,22-3.66,0-7.34,0-11,0v22h11v22h11v22c-3.65.02-7.34-.03-11,0-.05-3.65.04-7.35,0-11H8v-66h11.01s-.01-11.01-.01-11.01c3.66-.02,7.35.04,11.01,0-.05-3.66.04-7.35,0-11.01h-11.01s.01-11,.01-11l-11.02-.57v-10.43c7.33.08,14.7-.1,22.02,0Z"/>
  <path class="st0" d="M393,283c0,3.66,0,7.35,0,11.01-7.32-.08-14.69.1-22.01,0-.02-3.66-.02-7.34,0-11,7.32-.1,14.68.11,22,0Z"/>
  <path class="st0" d="M470,558c.02,3.66-.06,7.34,0,11-3.66.06-7.34-.06-11,0-.03,3.66.02,7.35,0,11.01h-11.01s0-11.01,0-11.01c3.66-.03,7.35.06,11.01,0,.03-3.66-.02-7.35,0-11.01,3.66,0,7.35.01,11.01,0Z"/>
  <path class="st0" d="M382,558c1.81.03,10.86-.48,11.02.58v10.43c-3.67.03-7.36-.06-11.02,0,.02-3.66-.02-7.34,0-11Z"/>
  <path class="st0" d="M228,316c-3.65-.05-7.35.04-11,0v-22h11.01c-.08,7.31.1,14.68,0,22,10.98.16,22.02-.16,33,0-.03,3.66.02,7.35,0,11h-22c0,3.66,0,7.34,0,11-7.32-.1-14.69.07-22.01,0v-11.01s11.01.01,11.01.01c.03-3.66-.06-7.35,0-11.01Z"/>
  <path class="st0" d="M272,30c.06-3.66-.04-7.35,0-11.01h11.01s-.01-11-.01-11h11.01v22.01c-7.32.03-14.68-.03-22,0-.06,3.66.02,7.34,0,11-3.66-.06-7.34.06-11,0-.02-3.66.06-7.34,0-11,3.66.02,7.34.02,11,0Z"/>
  <path class="st0" d="M118,558c3.66.06,7.35-.04,11.01,0v11.01c3.65.02,7.34-.04,10.99,0-.06,3.65-.06,7.35,0,11-7.31.1-14.69.03-22,0,.1-7.32-.03-14.68,0-22Z"/>
  <path class="st0" d="M415,305c.05-3.66-.04-7.35,0-11.01h11.01s0,11.01,0,11.01c-3.66.02-7.35-.04-11.01,0-.1,7.32.08,14.69,0,22.01h11.01s0-11.01,0-11.01h22v11.01s-11.01-.01-11.01-.01v11.01c10.98.11,22.02-.16,33.01,0-.03,3.66.02,7.35,0,11.01h-11.01s0,21.99,0,21.99h33c.03,14.65-.04,29.35,0,44-7.32.11-14.69-.08-22.01,0,0-3.66,0-7.35,0-11.01,3.66,0,7.35,0,11.01,0v-11.01s-11.01,0-11.01,0c0,3.66,0,7.35,0,11.01-3.66,0-7.35,0-11.01,0v-11.01s-21.99,0-21.99,0v-11.01s11.01.01,11.01.01v-11.01c-7.32.08-14.69-.1-22.01,0,.03-3.66-.02-7.35,0-11h22v-11h-33v-11.01s-11,0-11,0v-33c3.65-.02,7.34.03,11,0Z"/>
  <path class="st0" d="M371,19c-3.66,0-7.35,0-11.01,0V7.99s11.01,0,11.01,0c0,3.66,0,7.35,0,11.01,3.66,0,7.35,0,11.01,0v-11.01s21.99,0,21.99,0c.04,3.65-.06,7.35,0,11-3.66.06-7.35-.04-11.01,0v10.43c.15,1.06,9.2.55,11.01.58.06,3.66-.04,7.35,0,11.01h10.43c1.06-.15.55-9.2.58-11.01,7.32.03,14.68-.02,22,0-.06,3.66.06,7.34,0,11-3.66.05-7.35-.04-11.01,0,0,3.66,0,7.35,0,11.01-7.32.1-14.69-.07-22.01,0v11.01c-3.65.03-7.34-.06-10.99,0-.05-3.66.04-7.35,0-11.01h-11.01s-.57-11.01-.57-11.01h-10.43c-.02,7.33.04,14.7,0,22.02-14.65.07-29.35-.05-44,0v22c3.66,0,7.34,0,11,0,.03-3.66-.02-7.35,0-11.01h11.01s0,11.01,0,11.01h-11.01c-.03,3.65.02,7.34,0,11h-11.01s.01,11,.01,11h-11.01c-.03,3.65.06,7.34,0,10.99-3.66-.05-7.35.04-11.01,0v-11.01s-32.99,0-32.99,0v22h-22v11.01s-11.02.57-11.02.57v10.43s11.02,0,11.02,0v44h11.01s0,11,0,11h-22c-.04,3.65.05,7.35,0,11-3.65-.05-7.35.04-11,0v-22h-11v22c-3.65.02-7.34-.03-11,0-.16-10.98.12-22.02,0-33h-33c-.02-3.65.03-7.34,0-11,7.32-.11,14.68.08,22,0v-22h-11v-22h-11.01s0-11,0-11h-22v11.01s11.01-.01,11.01-.01c.03,3.66-.06,7.35,0,11.01-7.32-.1-14.68.1-22,0-.03-3.66.02-7.35,0-11.01h-11.01s0,11.01,0,11.01c3.66.03,7.35-.06,11.01,0,.03,3.66-.02,7.35,0,11.01,7.32-.08,14.69.09,22.01,0,.06,3.66-.04,7.35,0,11.01h11.01c.02,3.65-.04,7.34,0,10.99-3.65.05-7.35-.04-11,0v22h33v11h-22c-.08,7.32.11,14.68,0,22-3.66-.05-7.35.04-11.01,0l-.57-11.02h-10.43s0,11.02,0,11.02h-44v11h-33v-11.01s11.01.01,11.01.01v-10.43s-11.01-.57-11.01-.57v-11.01c10.99.04,22.02-.04,33.01,0,.05,3.65-.04,7.35,0,11h22v-11.01c-7.32-.01-14.68.04-22,0-.11-7.32.07-14.69,0-22.01h-11.01s.01,11.01.01,11.01c-10.98.11-22.02-.16-33.01,0,.01-7.31.1-14.69,0-22-3.66-.06-7.35.04-11.01,0v-11.01s11.01,0,11.01,0c.03,3.66-.06,7.35,0,11.01,3.65.06,7.34,0,10.98,0v11.02h11.03v-11.02c3.64-.06,7.33.04,10.99,0v-11.01c3.65-.03,7.34.06,10.99,0,0,3.66,0,7.35,0,11.01h11.01s0,10.99,0,10.99h22v22h11v-33h-22v-11.01c-7.31.08-14.68-.1-22,0,0-3.66,0-7.35,0-11.01h11.01s.01-10.42.01-10.42l-11.02-.57v-11.01h11.01s-.01-11-.01-11h11.01c.02-7.31-.04-14.67,0-21.99,3.65.06,7.35.06,11,0,.05,3.65-.04,7.35,0,11h33v-11.01s11,0,11,0v-22h11.01s-.01,11.01-.01,11.01c3.66.03,7.35-.06,11.01,0-.1,7.31,0,14.68,0,22-7.32-.11-14.69.08-22.01,0v10.43s11.01.57,11.01.57v11.01s10.99,0,10.99,0c.05,3.66-.04,7.35,0,11.01h11.01c-.08,7.31.1,14.68,0,21.99-3.66.06-7.35-.04-11.01,0v11.01s11.01,0,11.01,0c.03-3.66-.06-7.35,0-11.01,3.65-.06,7.35-.06,11,0,.05,3.66-.04,7.35,0,11.01h11.01s0-11.01,0-11.01c-3.66-.03-7.35.06-11.01,0-.16-10.98.12-22.02,0-33.01h11.01s-.01-11-.01-11h11.01c.03-3.65-.06-7.34,0-10.99,3.66,0,7.35,0,11.01,0,.07-7.32-.11-14.69,0-22.01,3.66-.06,7.35.04,11.01,0v-11.01s-11.01,0-11.01,0c-.03,3.66.06,7.35,0,11.01-3.66.06-7.34-.02-11,0-.05-3.66.04-7.35,0-11.01-3.66,0-7.35,0-11.01,0-.06-3.66.04-7.35,0-11.01h-11.01s0-11,0-11l11.02-.57v-10.43s-11.02.01-11.02.01c-.07-7.32.11-14.69,0-22.01,3.66-.02,7.34-.02,11,0,0,3.66,0,7.35,0,11.01,3.66.03,7.35-.06,11.01,0,.06,3.66-.04,7.35,0,11.01,3.66.03,7.35-.06,11.01,0,.04,7.32-.03,14.68,0,22.01h10.43c1.09-.15.56-19.61.58-22.01,3.66.06,7.35-.04,11.01,0v11.01s21.99,0,21.99,0v-11.01s10.42-.01,10.42-.01l.58,11.02h22v-11.01s-11.01.01-11.01.01c-.02-3.66.04-7.35,0-11.01-3.66-.05-7.35.04-11.01,0v-11.01s11.01,0,11.01,0c.02,3.66-.04,7.35,0,11.01,14.65.21,29.36-.16,44.01,0,0-3.66,0-7.35,0-11.01ZM360.02,40.98h-11.03v11.03h11.03v-11.03ZM316,63h-33v33h33v-33Z"/>
  <path class="st0" d="M580,129c3.65.11,7.35-.08,11.01,0v10.43c-.15,1.08-9.18.52-11.01.58.06-3.66-.02-7.34,0-11Z"/>
  <path class="st0" d="M184,305c3.66.05,7.35-.04,11.01,0,.07,7.32-.11,14.69,0,22.01h11.01s0,11.01,0,11.01h-11.01c-.03-3.66.06-7.35,0-11.01-3.66,0-7.34,0-11,0v22h11.01s.57,11.02.57,11.02h10.43s-.01-11.02-.01-11.02h11.01v44.01h22v22c3.65.04,7.35-.05,11,0-.06,3.65-.06,7.35,0,11h11.01s0,11.01,0,11.01h-11.01c-.03-3.66.06-7.35,0-11.01-3.66,0-7.34,0-11,0v33h33v11.01s-11,0-11,0v22h22v-11.01c3.65-.02,7.34.04,11,0,.06,3.65-.04,7.35,0,11h22v-11.01s10.42-.01,10.42-.01l.57,11.02h11.01c-.08-7.32.1-14.69,0-22.01,3.66-.05,7.35.04,11.01,0,.07-7.32-.11-14.69,0-22.01,10.99-.05,22.02.03,33.01,0v-11.01c3.65-.02,7.34.03,10.99,0-.1,7.32.08,14.68,0,22h22v-11.01s11,0,11,0c-.03,7.32.1,14.68,0,22-3.66.03-7.35-.02-11.01,0-.02,3.66.03,7.35,0,11.01-3.66,0-7.35,0-11.01,0v-11.01s-10.99,0-10.99,0v44c-3.65.04-7.35-.05-11,0-.05-3.66.04-7.35,0-11.01-7.32-.01-14.68.03-22.01,0-.03-3.66.02-7.35,0-11.01h-10.43c-1.06.15-.55,9.2-.58,11.01-3.65.06-7.35-.04-11,0v22h11.01c.06-7.31-.1-14.68,0-22,3.65-.06,7.35-.01,11,0,.03,3.66-.02,7.35,0,11.01,7.32-.09,14.69.1,22.01,0,.21,14.63.07,29.36,0,44-3.66-.05-7.34.06-11,0-.06-3.66.04-7.35,0-11.01-3.66-.03-7.35.06-11.01,0-.06-3.65-.06-7.35,0-11,3.66-.03,7.35.02,11.01,0v-11.01s-11.01,0-11.01,0c-.03,3.66.06,7.35,0,11.01-3.66.03-7.35-.02-11.01,0-.03,3.66.06,7.35,0,11.01-3.66-.03-7.34.06-11,0-.05-3.66.04-7.35,0-11.01h-11.01s0,11.01,0,11.01c3.66.03,7.35-.06,11.01,0,.21,14.65-.16,29.36,0,44.01h-11.01s.01-11.01.01-11.01h-11.01s0-11,0-11l11.02-.57v-10.43s-11.02.01-11.02.01v-11.01s-11,0-11,0v11.01s-11-.01-11-.01c-.02,3.66.04,7.35,0,11.01,3.65.05,7.35-.04,11,0v22h-33v-11h22c.02-3.65-.03-7.34,0-11-7.32-.11-14.69.07-22.01,0v-11.01s11.01.01,11.01.01v-11.01h-22.01v33c-3.65.04-7.35-.06-10.98,0v-11.02h-11.03v11.02c-3.64-.06-7.33.04-10.99,0v-11.01s-21.99,0-21.99,0c-.04-3.65.06-7.35,0-11,7.32-.03,14.68.02,22.01,0,.03-3.66-.06-7.35,0-11.01,7.32-.03,14.68.02,22.01,0,.03-3.66-.06-7.35,0-11.01,3.66-.05,7.35.04,11.01,0,0-3.66-.01-7.35,0-11.01,3.65-.06,7.35.04,11,0v-22h-22v-11.01s-11.01.01-11.01.01v-11.01s-21.99,0-21.99,0v-11.01s11.01.01,11.01.01v-10.43s-11.01-.57-11.01-.57v-11.01s11.01,0,11.01,0v-22c-3.66,0-7.34,0-11,0,.06-3.66-.06-7.34,0-11,3.66-.05,7.35.04,11.01,0v-11.01s-11.01,0-11.01,0c-.03,3.66.06,7.35,0,11.01-7.32.1-14.69-.08-22.01,0v-11.01s-11,.01-11,.01l-.57-11.02h-10.43c-.02,7.33.05,14.7,0,22.02-1.79,0-10.86-.46-11.02.58v10.43c3.67.03,7.36-.06,11.02,0-.06,3.66.04,7.35,0,11.01h-11.01c-.03,3.65.06,7.34,0,10.99-3.65-.05-7.35.04-11,0v-22c-3.65-.04-7.35.06-11,0,0-1.79.46-10.86-.58-11.02h-10.43c-.03,3.67.06,7.36,0,11.02-7.32-.04-14.68.03-22.01,0v-11.01s11.01.01,11.01.01v-11.01s21.99,0,21.99,0v-11c-7.32-.1-14.69.07-22.01,0v-11.01h22.01v11c3.66.05,7.35-.04,11.01,0v11.01s10.99,0,10.99,0v-33h-11.01s-.57-11.02-.57-11.02h-10.43s.01,11.02.01,11.02c-10.98.11-22.02-.16-33.01,0-.03,3.66.02,7.35,0,11.01h-11.01s0-11.01,0-11.01c3.66-.03,7.35.06,11.01,0,.03-3.66-.02-7.35,0-11.01h11.01c.03-3.65-.06-7.34,0-10.99,14.65.21,29.36-.16,44.01,0,.11-10.98-.16-22.02,0-33.01,7.32-.03,14.68.02,22.01,0,.03-3.66-.06-7.35,0-11.01ZM195,371h-22v11h22v-11ZM382,459h-22v11h22v-11ZM316,503h-33v33h33v-33Z"/>
  <path class="st0" d="M371,129c3.66.05,7.35-.04,11.01,0,.03,3.66-.06,7.35,0,11.01-3.66-.05-7.35.04-11.01,0-.03-3.66.06-7.35,0-11.01Z"/>
  <path class="st0" d="M107,558c-.01,7.31-.1,14.69,0,22-3.65-.06-7.35.04-11,0v-22c3.65-.04,7.35.06,11,0Z"/>
  <path class="st0" d="M415,19c.06-3.66-.04-7.35,0-11.01h11.01s0,11.01,0,11.01c-3.66.03-7.35-.06-11.01,0-.06,3.66.05,7.34,0,11-3.66-.01-7.34.05-11,0-.06-3.66.06-7.34,0-11,3.66-.06,7.34.06,11,0Z"/>
  <path class="st0" d="M580,118c.02,3.66.02,7.34,0,11-1.83-.06-10.86.5-11.02-.58v-10.43c3.67-.02,7.36.04,11.02,0Z"/>
  <path class="st0" d="M327,327c3.66,0,7.35,0,11.01,0v11.01c3.65.03,7.34-.06,10.99,0-.06,3.65-.06,7.35,0,11,3.66.05,7.35-.04,11.01,0v11.01s-11.01,0-11.01,0c-.03-3.66.06-7.35,0-11.01-7.32-.1-14.69.07-22.01,0,0-7.32,0-14.68,0-22.01Z"/>
  <path class="st0" d="M30,118c.06,3.66-.03,7.34,0,11-1.79,0-10.86.46-11.02-.58v-10.43c3.67-.03,7.36.06,11.02,0Z"/>
  <path class="st0" d="M547,327c14.65-.21,29.36.16,44.01,0v11.01s-11.01-.01-11.01-.01c-.02,3.66.04,7.35,0,11.01-3.66-.03-7.35.02-11.01,0v-11.01s-21.99,0-21.99,0c-.04-3.65.05-7.35,0-11Z"/>
  <path class="st0" d="M437,30c.06-3.66-.04-7.35,0-11.01h11.01s.57-11.01.57-11.01h10.43c.01,7.33-.03,14.7,0,22.02-7.32-.03-14.68.02-22,0Z"/>
  <path class="st0" d="M239,338c3.66.05,7.35-.04,11.01,0,.03,3.66-.06,7.35,0,11.01-3.66-.06-7.35.04-11.01,0v-11.01Z"/>
  <path class="st0" d="M260.98,349v-11.02h11.03v11.02c-3.67-.02-7.36.02-11.03,0Z"/>
  <path class="st0" d="M371,338c7.32.03,14.68-.02,22.01,0,0,7.32,0,14.68,0,22.01-3.65-.06-7.35-.06-11,0,0,3.66,0,7.35,0,11.01-3.66.02-7.35-.03-11.01,0-.03,3.66.02,7.35,0,11.01h-11.01s0-11.01,0-11.01c3.66-.02,7.35.03,11.01,0,.03-3.66-.02-7.35,0-11.01,3.66-.03,7.35.06,11.01,0,0-3.66,0-7.35,0-11.01h-11.01s0-10.99,0-10.99Z"/>
  <path class="st0" d="M260.98,349v11c-3.64,0-7.33-.06-10.98,0-.06,3.66.04,7.35,0,11.01h-11.01s0-11.01,0-11.01c3.66-.03,7.35.06,11.01,0,.06-3.65.06-7.35,0-11,3.66.06,7.34-.02,10.98,0Z"/>
  <path class="st0" d="M580,107c1.81.02,10.86-.48,11.02.58v10.43c-3.67.02-7.36-.04-11.02,0-.02-3.66.06-7.34,0-11Z"/>
  <path class="st0" d="M272.02,349c14.63.06,29.34-.04,43.99,0,.02,3.66-.03,7.35,0,11.01-7.32-.1-14.69.08-22.01,0v11.01s-10.42.01-10.42.01l-.57-11.02c-3.66-.03-7.35.06-10.99,0v-11Z"/>
  <path class="st0" d="M360,547c.06,3.66-.04,7.35,0,11.01,3.66.03,7.35-.06,11.01,0,.06,3.65.06,7.35,0,11-3.66.06-7.35-.04-11.01,0v11.01c-3.65,0-7.34,0-11,0,.12-10.98-.15-22.02,0-33.01,3.66.03,7.34-.06,11,0Z"/>
  <path class="st0" d="M558,360c-3.66-.05-7.35.04-11.01,0v-11.01s11.01,0,11.01,0c.03,3.66-.06,7.35,0,11.01,7.32.1,14.69-.08,22.01,0,.02-3.66-.04-7.35,0-11.01,3.66.03,7.35-.02,11,0v33h-22v-11.01c-3.65,0-7.34,0-11,0,.06-3.65.06-7.35,0-11Z"/>
  <path class="st0" d="M272.02,360v11.02h-11.03v-11.02c3.67,0,7.36-.06,11.03,0Z"/>
  <path class="st0" d="M316,360c3.66.05,7.35-.04,11.01,0,.03,3.66-.06,7.35,0,11.01-3.66-.05-7.35.04-11.01,0-.02-3.66.03-7.35,0-11.01Z"/>
  <path class="st0" d="M393,360c3.65.06,7.35-.04,11,0v22c3.66,0,7.34,0,11,0,0,3.66,0,7.35,0,11.01h11.01c.02,14.64-.04,29.34,0,43.99-3.66-.05-7.35.04-11.01,0v-11.01c-3.65,0-7.34,0-10.99,0,0-3.66,0-7.34,0-11h-22v11.01s-11.01-.01-11.01-.01v11.01s-21.99,0-21.99,0c-.04,3.65.05,7.35,0,11-10.99.05-22.02-.03-33.01,0,0,3.66,0,7.35,0,11.01-7.31-.03-14.69-.1-22,0-.03-7.32.03-14.68,0-22h-22v-22c-7.32-.08-14.68.11-22,0,.06-3.65-.04-7.35,0-11h22v-22h11v22h11.01s-.01-11.01-.01-11.01h11.01c-.08,7.32.1,14.69,0,22.01-3.66.05-7.35-.04-11.01,0v11.01s11.01,0,11.01,0c.03-3.66-.06-7.35,0-11.01,7.32-.1,14.69.08,22.01,0v11.01s-11.01-.01-11.01-.01v11.01h22.01v-11h22c0-3.66,0-7.34,0-11,3.65-.05,7.35.04,11,0v-22c3.65-.04,7.35.05,11,0,0,3.66,0,7.34,0,11h22v-11.01c-7.31.09-14.68-.1-22,0v-11.01s11.01.01,11.01.01c0-7.32,0-14.68,0-22.01Z"/>
  <path class="st0" d="M470,30c.03-7.32-.02-14.68,0-22.01h11.01s-.01,11.01-.01,11.01h11.01c.07,7.31-.11,14.68,0,21.99,3.66.06,7.35-.04,11.01,0v11.01s-11.01,0-11.01,0c-.03-3.66.06-7.35,0-11.01-3.66-.06-7.34.02-11,0-.05-3.66.04-7.35,0-11.01-3.66-.03-7.35.06-11.01,0Z"/>
  <path class="st0" d="M327,371c7.32.1,14.68-.08,22,0v22h-11.01c0,3.65,0,7.34,0,11-3.66-.05-7.35.04-11.01,0-.11-10.98.16-22.02,0-33.01Z"/>
  <path class="st0" d="M426,371c-.03,3.66.02,7.35,0,11.01h-11.01c0-3.66,0-7.35,0-11.01,3.66-.03,7.35.06,11.01,0Z"/>
  <path class="st0" d="M206,107c3.65.05,7.35-.04,11,0v22c-3.66,0-7.34,0-11,0-.1-7.31,0-14.68,0-22Z"/>
  <path class="st0" d="M558,371c-.06,3.66.04,7.35,0,11.01-3.66.03-7.35-.06-11.01,0,.05-3.66-.04-7.35,0-11.01,3.66,0,7.35,0,11.01,0Z"/>
  <path class="st0" d="M206,547c.02,3.66-.06,7.34,0,11-10.98.05-22.02-.04-33,0v33h-33c-.04-3.65.06-7.35,0-11,1.81-.02,10.86.48,11.02-.58v-10.43c-3.67-.02-7.36.04-11.02,0,.06-3.66-.04-7.35,0-11.01h11.01c.03-3.65-.06-7.34,0-10.99,18.31.08,36.69.05,55,0Z"/>
  <path class="st0" d="M250,19c3.66.06,7.35-.04,11.01,0,.03,3.66-.06,7.35,0,11.01-3.66-.02-7.34.06-11,0-.06-3.66.06-7.34,0-11Z"/>
  <path class="st0" d="M492,415c3.65-.05,7.35.04,11,0v-33h11v22h11v-22c7.32-.08,14.68.1,22,0-.1,7.32.08,14.69,0,22.01,3.66.03,7.35-.06,11.01,0-.15,10.98.16,22.02,0,33-3.66,0-7.35,0-11.01,0v-11.01s-10.99,0-10.99,0c.11,7.32-.08,14.69,0,22.01h-11.01v-22.01c3.66,0,7.34,0,11,0-.05-3.65.04-7.35,0-11h-22v11.01c-7.31.04-14.68-.07-22,0,0-3.66.01-7.34,0-11Z"/>
  <path class="st0" d="M52,426c-3.66-.05-7.35.04-11.01,0v-11.01s-21.99,0-21.99,0v11.01s-11,0-11,0v-33h11.01s.57,11.02.57,11.02h10.43s0-11.02,0-11.02h22c.04,10.98-.05,22.02,0,33,10.98.16,22.02-.11,33.01,0v11.01c-7.33,0-14.69,0-22.01,0v11.01h22.01c0-3.66,0-7.34,0-11,7.32,0,14.68,0,22.01,0v11.01s10.42.01,10.42.01l.57-11.02c3.66-.02,7.35.03,11.01,0,.06,3.66-.04,7.35,0,11.01h11.01s-.01,11-.01,11h11.01s0,21.99,0,21.99c3.65.04,7.35-.06,11,0-.03,10.98-.05,22.02,0,33,3.66,0,7.34,0,11,0v22h-11.01c-.01-7.32.04-14.68,0-22h-11.01c-.11,10.98.16,22.02,0,33-7.32-.03-14.68.02-22,0v-22c-3.66,0-7.34,0-11,0,.03-7.32-.02-14.68,0-22h33v-11h-33v-11.01s-11.01.01-11.01.01v-11.01c-3.65-.03-7.34.06-10.99,0-.05-3.66.04-7.35,0-11.01-14.65.16-29.36-.2-44.01,0-.16-10.98.05-22.02,0-33ZM129,470c-.03-3.66.02-7.35,0-11.01h-11.01s0,11.01,0,11.01c3.66.02,7.35-.04,11.01,0,.03,3.66-.02,7.35,0,11.01h11.01s0-11.01,0-11.01c-3.66-.02-7.35.04-11.01,0Z"/>
  <path class="st0" d="M118,525c-.05,10.98.05,22.02,0,33-3.65-.06-7.35-.06-11,0,.02-10.99-.01-22.02,0-33.01h11.01Z"/>
  <path class="st0" d="M536,118h-11v-22h11.01c-.08,7.31.1,14.68,0,22h11v-22h33c.04,3.65-.06,7.35,0,11-7.32-.1-14.68.07-22,0v22h-11v22h-11.01c.08,7.31-.09,14.68,0,22-3.66.06-7.35-.04-11.01,0v11.01s-11,0-11,0c-.04-7.32.07-14.69,0-22.01-3.66.06-7.34-.06-11,0,.1,7.32-.08,14.69,0,22.01h-11.01v-22.01c3.65-.04,7.35.06,11,0-.05-3.66.04-7.35,0-11.01h-11.01s.01-11,.01-11h-11.01s0-10.99,0-10.99h-22c-.03-7.32.03-14.68,0-22h11.01s-.01,11.01-.01,11.01c7.32.07,14.69-.11,22.01,0,0,3.66,0,7.35,0,11.01h11.01c.03,3.65-.02,7.34,0,11h11.01c.04,7.31-.07,14.68,0,21.99,3.65-.06,7.35.04,11,0v-33h11.01c.03-3.65-.06-7.34,0-11Z"/>
  <path class="st0" d="M250,525c.06-3.66-.04-7.35,0-11.01h10.43c1.03.14.58,9.21.58,11.01-3.65.06-7.35.06-11,0Z"/>
  <path class="st0" d="M503,96c3.65.05,7.35-.04,11,0v33c-3.66,0-7.34,0-11,0-.03-3.66.02-7.35,0-11.01-3.66-.03-7.35.06-11.01,0,0-3.66,0-7.35,0-11.01h11.01c.03-3.65-.06-7.34,0-10.99Z"/>
  <path class="st0" d="M558,404c.02-1.81-.48-10.86.58-11.02h10.43c.02,3.67-.03,7.36,0,11.02-3.66,0-7.35.06-11,0Z"/>
  <path class="st0" d="M580,404c.06-3.66-.04-7.35,0-11.01h11.01s0,11.01,0,11.01c-3.66.03-7.35-.06-11.01,0-.06,3.65,0,7.34,0,11-3.65-.11-7.35.08-11.01,0-.02-3.66.03-7.35,0-11.01,3.66,0,7.35.06,11,0Z"/>
  <path class="st0" d="M338,404c7.32.1,14.69-.07,22.01,0v11.01c-7.32.11-14.69-.08-22.01,0,0-3.66,0-7.35,0-11.01Z"/>
  <path class="st0" d="M85,107c-3.66-.05-7.35.04-11.01,0v-11.01s11.01,0,11.01,0c.03,3.66-.06,7.35,0,11.01,2.41.03,21.85-.51,22.02.58v10.43c-7.33,0-14.7,0-22.02,0-.06,3.65.04,7.35,0,11h-22v11c7.32-.1,14.69.08,22.01,0v11.01h-22.01c0-3.66,0-7.34,0-11-3.66.05-7.35-.04-11.01,0v11.01c-3.65,0-7.34,0-10.99,0-.05-3.66.04-7.35,0-11.01-3.66-.03-7.35.06-11.01,0-.06-3.66.03-7.34,0-11,3.66,0,7.35,0,11.01,0,.03-3.66-.06-7.35,0-11.01,3.66-.06,7.35.04,11.01,0l.57-11.02h10.43s-.01,11.02-.01,11.02c7.32,0,14.68,0,22.01,0,.06-3.65.06-7.35,0-11Z"/>
  <path class="st0" d="M30,118c-.06-3.66.04-7.35,0-11.01h-11.01s0-10.99,0-10.99h22c-.08,7.32.1,14.68,0,22-3.66.06-7.34-.06-11,0Z"/>
  <path class="st0" d="M250,85c.1,7.3.1,14.7,0,22-3.66,0-7.35,0-11.01,0-.02-7.32.05-14.69,0-22.01,3.66-.02,7.34.02,11,0Z"/>
  <path class="st0" d="M173,415c3.66,0,7.35,0,11.01,0,.03,3.66-.06,7.35,0,11.01-3.66-.06-7.34.06-11,0,.06-3.66-.02-7.34,0-11Z"/>
  <path class="st0" d="M228,85c-.06,1.83.5,10.86-.58,11.02h-10.43c-.02-3.67.04-7.36,0-11.02,3.66.02,7.34-.02,11,0Z"/>
  <path class="st0" d="M459,74c-.06,3.66.02,7.34,0,11-3.65.05-7.35.06-11,0-.06-3.65-.01-7.35,0-11,3.66,0,7.35-.06,11,0Z"/>
  <path class="st0" d="M448,437c-.05-3.66.04-7.35,0-11.01h-11.01s0-10.99,0-10.99h22c.08,7.32-.1,14.68,0,22-3.66-.01-7.34.02-11,0Z"/>
  <path class="st0" d="M415,85c-3.66,0-7.35,0-11.01,0v-11.01s11.01,0,11.01,0c0,3.66,0,7.35,0,11.01,3.66,0,7.35,0,11.01,0v-11.01c3.65-.03,7.34.06,10.99,0,.03,3.66-.02,7.35,0,11.01,3.66.03,7.35-.06,11.01,0,.06,3.66-.04,7.35,0,11.01,3.66.03,7.35-.06,11.01,0,0,3.66-.02,7.34,0,11-3.66,0-7.34,0-11,0v22c-3.65.02-7.34-.03-11,0-.05-3.66.04-7.35,0-11.01h-11.01c0-3.65,0-7.34,0-10.99,3.66-.03,7.35.02,11.01,0v-11.01s-11.01,0-11.01,0c0,3.66,0,7.35,0,11.01-3.66.03-7.35-.02-11,0v33h11.01s-.01-11.01-.01-11.01c3.66-.02,7.35.04,11.01,0,.1,7.3.11,14.7,0,22-18.27-.26-36.73-.26-55,0,.06-3.65.06-7.35,0-11,7.32.1,14.69-.08,22.01,0v-11.01s-11.01.01-11.01.01c-.07-7.32.11-14.69,0-22.01-3.66,0-7.35,0-11.01,0v-11.01s11.01,0,11.01,0c.03,3.66-.06,7.35,0,11.01,3.66,0,7.35,0,11.01,0v-11.01s11,.01,11,.01c0-3.66,0-7.35,0-11.01Z"/>
  <path class="st0" d="M580,415c1.83.06,10.86-.5,11.02.58v10.43c-3.67.02-7.36-.04-11.02,0-.06-3.65,0-7.34,0-11Z"/>
  <path class="st0" d="M140,426c0,3.66,0,7.35,0,11.01-3.66.02-7.35-.03-11.01,0-.06-3.65-.06-7.35,0-11,3.66.02,7.34-.06,11,0Z"/>
  <path class="st0" d="M371,74c-.08,18.3-.26,36.7,0,55-10.98-.15-22.02.12-33.01,0-.03,3.66.06,7.35,0,11.01-7.32-.1-14.69.07-22.01,0,.08-7.32-.1-14.69,0-22.01,14.65.21,29.35-.15,44,0v-44c3.66,0,7.34,0,11,0Z"/>
  <path class="st0" d="M459,503c-.06,3.66.06,7.34,0,11-3.66-.03-7.35.02-11.01,0-.03-3.66.06-7.35,0-11.01,3.66.02,7.34.02,11,0Z"/>
  <path class="st0" d="M184,426c3.66.06,7.35-.04,11.01,0v11.01c3.65,0,7.34,0,10.99,0-.15,10.98.11,22.02,0,33.01h-11.01v-22.01c-3.65-.04-7.35.05-11,0,.03-7.31.1-14.69,0-22Z"/>
  <path class="st0" d="M217,426c-.06,3.66.04,7.35,0,11.01-3.66,0-7.35,0-11.01,0,.05-3.66-.04-7.35,0-11.01h11.01Z"/>
  <path class="st0" d="M239,74c.06,3.66-.02,7.34,0,11-3.66.02-7.34.02-11,0,.11-3.65-.08-7.35,0-11.01,3.66,0,7.35,0,11.01,0Z"/>
  <path class="st0" d="M404,426v11.01c-3.65.02-7.34-.03-11,0,.05-3.66-.04-7.35,0-11.01,3.66,0,7.35,0,11.01,0Z"/>
  <path class="st0" d="M206,85c.02-1.81-.48-10.86.58-11.02h10.43c.02,3.67-.04,7.36,0,11.02-3.66-.02-7.34.06-11,0Z"/>
  <path class="st0" d="M492,426c0,3.66.01,7.34,0,11-7.32-.03-14.68.02-22,0,.06-3.66-.04-7.35,0-11.01,7.32-.04,14.69.07,22.01,0Z"/>
  <path class="st0" d="M580,426c.06,3.66-.04,7.35,0,11.01l11.02.57v10.43s-11.02-.01-11.02-.01v11.01c-10.98,0-22.01,0-32.99,0,.05-3.66-.04-7.35,0-11.01h11.01c.03-3.65-.06-7.34,0-10.99,3.66,0,7.35,0,11.01,0v-11.01c3.65-.02,7.34.04,10.99,0Z"/>
  <path class="st0" d="M41,492c-7.32-.1-14.69.07-22.01,0v-11.01s-10.99,0-10.99,0v-22h11v-22h11v44c3.65.04,7.35-.05,11,0,.03-7.32-.02-14.68,0-22.01,3.66-.03,7.35.06,11.01,0,.05,3.66-.04,7.35,0,11.01,14.65.14,29.36-.21,44.01,0,.1,7.32-.1,14.68,0,22,3.66.06,7.35-.04,11.01,0v11.01s-11.01,0-11.01,0c-.03-3.66.06-7.35,0-11.01-3.65-.06-7.35-.06-11,0,0,3.66,0,7.35,0,11.01h-11.01s0-11.01,0-11.01c3.66-.03,7.35.06,11.01,0,0-3.66,0-7.35,0-11.01-14.65-.15-29.36.22-44.01,0-.01,3.65-.06,7.35,0,11,3.66.05,7.35-.04,11.01,0v11.01s-11.01,0-11.01,0c-.03-3.66.06-7.35,0-11.01Z"/>
  <path class="st0" d="M448,437c.1,7.32-.07,14.69,0,22.01,7.32.02,14.68-.04,22.01,0-.06,3.65.04,7.35,0,11h-22c.11,10.98-.15,22.02,0,33-3.66-.02-7.34.06-11,0-.05-3.66.04-7.35,0-11.01h-11.01s0,11.01,0,11.01c3.66.03,7.35-.06,11.01,0,.1,7.32-.03,14.68,0,22-3.66-.05-7.35.04-11.01,0v-11.01s-10.99,0-10.99,0c.1,7.32-.08,14.69,0,22.01h-11.01v-22.01c3.66,0,7.34,0,11,0-.05-3.66.04-7.35,0-11.01h-11.01s-.01-10.42-.01-10.42l11.02-.57c.02-3.66-.03-7.35,0-11.01,3.66,0,7.35,0,11.01,0,.03-3.66-.06-7.35,0-11.01,3.66-.03,7.35.02,11,0v-22c-3.66,0-7.34,0-11,0,.02-3.66,0-7.34,0-11,7.32.1,14.68-.03,22,0Z"/>
  <path class="st0" d="M140,74c3.65.06,7.35-.04,11,0v22c-3.65.04-7.35-.06-11,0-.11-7.31-.03-14.69,0-22Z"/>
  <path class="st0" d="M470,437c-.06,3.66.03,7.34,0,11-3.66-.03-7.35.02-11.01,0-.03-3.66.06-7.35,0-11.01,3.66.01,7.34-.01,11,0Z"/>
  <path class="st0" d="M129,74c-.1,7.32.03,14.68,0,22-3.66-.06-7.35.04-11.01,0-.02-7.32.04-14.68,0-22.01,3.65-.06,7.34,0,11,0Z"/>
  <path class="st0" d="M492,437c7.32.03,14.68-.02,22,0v22h33c-.1,7.32.07,14.69,0,22.01-3.66.03-7.35-.06-11.01,0-.01-1.8.47-10.86-.58-11.02h-10.43c-.02,3.67.04,7.36,0,11.02-7.32.04-14.68-.03-22.01,0v11.01h22.01c.02-3.65-.03-7.34,0-11,3.66-.02,7.34.06,11,0,.03,3.66-.02,7.35,0,11h22v11.01s-11,0-11,0v22c10.98-.12,22.02.16,33,0-.03-3.66.02-7.35,0-11.01h-11.01s0-10.99,0-10.99h22v22c-3.65.04-7.35-.05-11,0,.03,3.66-.02,7.35,0,11.01h11.01s0,21.99,0,21.99h-22v11h22v11h-22v11h-22v-11.01c-3.65-.03-7.34.06-10.98,0v-33.02h-11.03v33.02c-3.64.06-7.33-.04-10.99,0v11.01s-10.99,0-10.99,0v-22h11.01s0-11.01,0-11.01h-11.01s.01-11,.01-11h-11.01v44.01h-11.01s.01-11.01.01-11.01h-11.01c-.03-3.65.06-7.34,0-10.99,3.66-.06,7.35.04,11.01,0v-10.43c-.14-1.03-9.22-.58-11.01-.58-.04-7.32.03-14.68,0-22h-22v22c-3.66,0-7.34,0-11,0-.05,10.98.04,22.02,0,33h-44v-11h22v-11.01s-11.01.01-11.01.01v-11.01h11.01s-.01-11-.01-11h10.43s.57,11.01.57,11.01h11.01c.05-10.99.05-22.02,0-33.01,7.32.1,14.69-.08,22.01,0,.03-3.66-.06-7.35,0-11.01,3.66.03,7.35-.02,11.01,0v11.01c3.65.02,7.34-.04,10.99,0,0,3.66,0,7.35,0,11.01h11.01s0-11.01,0-11.01c-3.66-.02-7.35.04-11.01,0,0-3.66,0-7.35,0-11.01h11.01s0-21.99,0-21.99h-11.01s.01,11.01.01,11.01c-7.32.02-14.68-.04-22.01,0,.06-3.66-.04-7.35,0-11.01h11.01s0-10.99,0-10.99h22c.04-3.65-.06-7.35,0-11,1.79,0,10.86.46,11.02-.58v-10.43c-3.67-.03-7.36.06-11.02,0,.03-7.32-.02-14.68,0-22ZM536,503h-33v33h33v-33ZM569.02,535.98h-11.03v11.03h11.03v-11.03Z"/>
  <path class="st0" d="M184,448c-.03,7.32.02,14.68,0,22.01h-11.01c0,3.65,0,7.34,0,10.99-3.66-.02-7.34.06-11,0,.03-10.98-.16-22.02,0-33,7.32.11,14.68-.11,22,0Z"/>
  <path class="st0" d="M393,63c.1,7.32-.08,14.69,0,22.01h-11.01s.01-11.01.01-11.01h-11.01c.02-3.65-.02-7.34,0-10.99,7.32-.03,14.68.1,22,0Z"/>
  <path class="st0" d="M470,30c-.02,3.66.02,7.34,0,11-3.66-.02-7.34-.02-11,0,.06-3.65.01-7.35,0-11,3.66.02,7.34-.06,11,0Z"/>
  <path class="st0" d="M470,448c3.66.03,7.35-.02,11.01,0,.02,3.66-.03,7.35,0,11.01-3.66-.02-7.34.02-11,0,.06-3.66-.03-7.34,0-11Z"/>
  <path class="st0" d="M140,63c-.06,3.66.02,7.34,0,11-3.65-.06-7.34,0-11,0,.05-3.66-.04-7.35,0-11.01,3.66-.03,7.35.06,11.01,0Z"/>
  <path class="st0" d="M206,492c7.32.03,14.68-.02,22,0v22h11.01s-.01,11.01-.01,11.01c3.66.03,7.35-.06,11.01,0-.06,3.66.06,7.34,0,11-7.3.1-14.7.1-22,0-.06-3.66.04-7.35,0-11.01h-11.01s0,11.01,0,11.01c3.66.03,7.35-.06,11.01,0,.06,3.65.06,7.35,0,11-7.32.03-14.68-.02-22,0-.04-7.32.03-14.68,0-22.01h-11.01s0-21.99,0-21.99c3.66,0,7.34,0,11,0,.06,3.66-.04,7.35,0,11.01h11.01s0-11.01,0-11.01h-11.01c-.06-3.65.06-7.34,0-10.99Z"/>
  <path class="st0" d="M294,459c.02,3.66-.02,7.34,0,11-3.65-.11-7.35.08-11.01,0v-10.43c.15-1.06,9.2-.55,11.01-.58Z"/>
  <path class="st0" d="M118,52c.03,7.32-.03,14.68,0,22-3.66.06-7.35-.04-11.01,0v11.01s-10.99,0-10.99,0v-22h11.01c.03-3.65-.06-7.34,0-11,3.65.06,7.35.06,11,0Z"/>
  <path class="st0" d="M316,459c7.32.03,14.68-.02,22.01,0,.03,3.66-.06,7.35,0,11.01-7.32.1-14.69-.08-22.01,0,0-3.66,0-7.35,0-11.01Z"/>
  <path class="st0" d="M173,481c10.99.05,22.02-.03,33.01,0,.03,3.66-.06,7.35,0,11.01-10.99-.05-22.02.03-33.01,0,0-3.66,0-7.35,0-11.01Z"/>
  <path class="st0" d="M481,41c.21,14.65-.15,29.36,0,44.01h11.01s-.01-11.01-.01-11.01h11.01c-.08,7.32.1,14.69,0,22.01-14.65-.21-29.35.21-44,0,0-3.66-.02-7.34,0-11,1.81-.03,10.86.48,11.02-.58v-10.43c-3.67-.03-7.36.06-11.02,0,.06-3.66-.04-7.35,0-11.01h11.01c.02-7.31-.04-14.67,0-21.99,3.66.02,7.34-.02,11,0Z"/>
  <path class="st0" d="M492,459c-.02,3.66.06,7.34,0,11-3.66,0-7.35,0-11.01,0-.02-3.66.03-7.35,0-11.01,3.66.02,7.34-.06,11,0Z"/>
  <path class="st0" d="M459,41c-.06,3.66.04,7.35,0,11.01h-11.01c-.01,7.31.03,14.67,0,21.99-3.66,0-7.35-.06-11,0-.03-3.66.02-7.35,0-11.01h-11.01c0-3.65,0-7.34,0-10.99,3.66-.05,7.35.04,11.01,0,.03-3.66-.06-7.35,0-11.01,7.32-.1,14.68.04,22,0Z"/>
  <path class="st0" d="M294,470c1.83.06,10.86-.5,11.02.58v10.43c-3.67.02-7.36-.04-11.02,0-.06-3.66.02-7.34,0-11Z"/>
  <path class="st0" d="M537.76,8.26c20.98-2.83,50.6-1.39,53.23,25.25,2.06,20.88.83,48.88-25.5,51.48-21.73,2.15-49.19.77-51.53-26.45-1.68-19.61-.83-46.96,23.79-50.28ZM538.74,19.24c-4.01.67-9.51,3.88-11.59,7.41-2.95,5.03-2.88,25.43-2.15,31.85.54,4.79,3.43,10.86,7.65,13.35,5,2.94,26.45,2.92,32.76,2.06,4.35-.59,10.19-3.74,12.44-7.56,2.94-5,2.92-26.45,2.06-32.76-.98-7.17-6.18-13.5-13.5-14.5-5.62-.77-22.16-.77-27.67.15Z"/>
  <path class="st0" d="M31.76,514.26c20.98-2.83,50.6-1.39,53.23,25.25,2.06,20.88.83,48.88-25.5,51.48-21.73,2.15-49.19.77-51.53-26.45-1.68-19.61-.83-46.96,23.79-50.28ZM32.74,525.24c-4.01.67-9.51,3.88-11.59,7.41-2.95,5.03-2.88,25.43-2.15,31.85.54,4.79,3.43,10.86,7.65,13.35,5,2.94,26.45,2.92,32.76,2.06,4.35-.59,10.19-3.74,12.44-7.56,2.94-5,2.92-26.45,2.06-32.76-.98-7.17-6.18-13.5-13.5-14.5-5.62-.77-22.16-.77-27.67.15Z"/>
  <path class="st0" d="M31.76,8.26c20.98-2.83,50.6-1.39,53.23,25.25,2.06,20.88.83,48.88-25.5,51.48-21.73,2.15-49.19.77-51.53-26.45-1.68-19.61-.83-46.96,23.79-50.28ZM32.74,19.24c-4.01.67-9.51,3.88-11.59,7.41-2.95,5.03-2.88,25.43-2.15,31.85.54,4.79,3.43,10.86,7.65,13.35,5,2.94,26.45,2.92,32.76,2.06,4.35-.59,10.19-3.74,12.44-7.56,2.94-5,2.92-26.45,2.06-32.76-.98-7.17-6.18-13.5-13.5-14.5-5.62-.77-22.16-.77-27.67.15Z"/>
  <path class="st0" d="M74,393c-.06,3.65-.06,7.35,0,11-1.79,0-10.86.46-11.02-.58v-10.43c3.67-.03,7.36.06,11.02,0Z"/>
  <path class="st0" d="M85,393c7.32.03,14.68-.02,22.01,0v11.01s-11.01-.01-11.01-.01v11.01s-21.99,0-21.99,0c-.04-3.65.06-7.35,0-11,3.66,0,7.35,0,11.01,0,0-3.66-.01-7.35,0-11.01Z"/>
  <path class="st0" d="M74,393c.06-3.66-.04-7.35,0-11.01h10.43c1.03.14.58,9.21.58,11.01-3.65-.01-7.35-.06-11,0Z"/>
  <polygon class="st0" points="591 470 591 492 579.99 492.01 580 481 558 481 558 470 591 470"/>
  <rect class="st0" x="514" y="195" width="22" height="11"/>
  <rect class="st0" x="459" y="162" width="22" height="11"/>
  <rect class="st0" x="557.98" y="304.98" width="11.03" height="11.03"/>
  <rect class="st0" x="73.98" y="337.98" width="11.03" height="11.03"/>
  <rect class="st0" x="183.98" y="579.98" width="11.03" height="11.03"/>
  <path class="st0" d="M283,140c.03-3.66-.02-7.35,0-11.01h11.01s0,11.01,0,11.01c-3.66.03-7.35-.06-11.01,0-.03,3.66.02,7.35,0,11h-22v-11.01c7.31-.07,14.68.11,22,0Z"/>
  <rect class="st0" x="293.98" y="73.98" width="11.03" height="11.03"/>
  <rect class="st0" x="238.98" y="293.98" width="11.03" height="11.03"/>
  <rect class="st0" x="249.98" y="381.98" width="11.03" height="11.03"/>
  <rect class="st0" x="293.98" y="513.98" width="11.03" height="11.03"/>
  <path class="st0" d="M514,360c-3.66-.05-7.35.04-11.01,0v-11.01s11.01,0,11.01,0c.02,3.66-.04,7.35,0,11.01,7.32.1,14.69-.07,22.01,0v11.01h-22.01c-.02-3.65.03-7.34,0-11Z"/>
  <rect class="st0" x="513.98" y="293.98" width="11.03" height="11.03"/>
  <rect class="st0" x="513.98" y="513.98" width="11.03" height="11.03"/>
  <rect class="st0" x="73.98" y="293.98" width="11.03" height="11.03"/>
  <rect class="st0" x="326.98" y="205.98" width="11.03" height="11.03"/>
  <circle class="st0" cx="552.5" cy="46.5" r="16.34"/>
  <circle class="st0" cx="46.5" cy="552.5" r="16.34"/>
  <circle class="st0" cx="46.5" cy="46.5" r="16.34"/>
  <rect class="st0" x="293.98" y="293.98" width="11.03" height="11.03"/>
</svg>